<svg width="51" height="50" viewBox="0 0 51 50" fill="none" xmlns="http://www.w3.org/2000/svg">
<g id="001-restaurant">
<path id="Vector" d="M6.67255 14.5382C6.67255 8.80391 10.4083 4.15375 15.016 4.15375C19.6237 4.15375 23.3595 8.80391 23.3595 14.5382C23.4865 16.6475 22.9527 18.744 21.8318 20.5383C20.7109 22.3325 19.0582 23.7361 17.1019 24.555V43.6147C17.1019 44.1655 16.8822 44.6938 16.491 45.0833C16.0998 45.4727 15.5692 45.6916 15.016 45.6916C14.4628 45.6916 13.9323 45.4727 13.5411 45.0833C13.1499 44.6938 12.9302 44.1655 12.9302 43.6147V24.555C10.9738 23.7361 9.32114 22.3325 8.20024 20.5383C7.07934 18.744 6.54554 16.6475 6.67255 14.5382ZM40.0465 6.23064V14.5382H37.9606V6.23064C37.9606 5.67981 37.7409 5.15155 37.3497 4.76205C36.9585 4.37256 36.428 4.15375 35.8748 4.15375C35.3216 4.15375 34.791 4.37256 34.3998 4.76205C34.0087 5.15155 33.7889 5.67981 33.7889 6.23064V14.5382H31.703V6.23064C31.703 5.67981 31.4833 5.15155 31.0921 4.76205C30.7009 4.37256 30.1704 4.15375 29.6172 4.15375C29.0639 4.15375 28.5334 4.37256 28.1422 4.76205C27.751 5.15155 27.5313 5.67981 27.5313 6.23064V16.6151C27.5313 18.2676 28.1906 19.8524 29.3641 21.0208C30.5376 22.1893 32.1293 22.8458 33.7889 22.8458V43.6147C33.7889 44.1655 34.0087 44.6938 34.3998 45.0833C34.791 45.4727 35.3216 45.6916 35.8748 45.6916C36.428 45.6916 36.9585 45.4727 37.3497 45.0833C37.7409 44.6938 37.9606 44.1655 37.9606 43.6147V22.8458C39.6203 22.8458 41.2119 22.1893 42.3854 21.0208C43.559 19.8524 44.2183 18.2676 44.2183 16.6151V6.23064C44.2183 5.67981 43.9985 5.15155 43.6073 4.76205C43.2161 4.37256 42.6856 4.15375 42.1324 4.15375C41.5792 4.15375 41.0486 4.37256 40.6575 4.76205C40.2663 5.15155 40.0465 5.67981 40.0465 6.23064Z" fill="#164F91"/>
</g>
</svg>
