<svg width="51" height="50" viewBox="0 0 51 50" fill="none" xmlns="http://www.w3.org/2000/svg">
<g id="003-toilette" clip-path="url(#clip0_10_218)">
<g id="Group">
<g id="Group_2">
<g id="Group_3">
<path id="Vector" d="M17.5957 16.5465C17.2664 15.6632 16.3764 15.1642 15.4716 15.1642C15.02 15.1642 14.9783 15.1757 14.7093 15.1757H7.39206C7.12298 15.1757 6.88386 15.1757 6.62935 15.1757C5.59606 15.1757 4.83499 15.6631 4.50568 16.5465L0.598674 28.3822C0.226448 29.3808 0.729471 30.4941 1.72203 30.8686C2.71472 31.2432 3.82118 30.7371 4.19354 29.7386L5.23228 26.9526C5.23228 26.9526 5.3064 26.6717 5.3064 27.8982V44.3257C5.3064 45.7619 6.46368 46.9261 7.89141 46.9261C9.31913 46.9261 10.4764 45.7619 10.4764 44.3257V33.5936C10.4764 33.5936 10.4639 33.4987 10.5642 33.4987C10.8067 33.4987 11.2921 33.4987 11.5348 33.4987C11.6306 33.4987 11.6252 33.5936 11.6252 33.5936V44.3257C11.6252 45.7619 12.7825 46.9261 14.2103 46.9261C15.638 46.9261 16.7953 45.7619 16.7953 44.3257V27.8982C16.7953 26.652 16.9038 27.0446 16.9038 27.0446L17.9083 29.7388C18.2803 30.7375 19.3871 31.2434 20.3798 30.8688C21.3723 30.4941 21.8755 29.3811 21.5031 28.3826L17.5957 16.5465Z" fill="#164F91"/>
<path id="Vector_2" d="M11.1021 13.8628C14.1674 13.8628 16.6523 11.413 16.6523 8.39098C16.6523 5.36896 14.1674 2.91913 11.1021 2.91913C8.03688 2.91913 5.552 5.36896 5.552 8.39098C5.552 11.413 8.03688 13.8628 11.1021 13.8628Z" fill="#164F91"/>
</g>
<g id="Group_4">
<path id="Vector_3" d="M39.4182 13.8891C42.4834 13.8891 44.9683 11.4138 44.9683 8.36033C44.9683 5.3069 42.4834 2.8316 39.4182 2.8316C36.3529 2.8316 33.868 5.3069 33.868 8.36033C33.868 11.4138 36.3529 13.8891 39.4182 13.8891Z" fill="#164F91"/>
<path id="Vector_4" d="M50.3315 28.1203L45.5958 16.6293C45.325 16.0495 45.0853 15.2725 43.9726 15.2725C43.5615 15.2725 43.154 15.2725 42.6833 15.2725H36.8879C36.4082 15.2725 36.1589 15.2725 35.568 15.2725C34.4581 15.2725 33.879 15.9929 33.5615 16.6417L28.6425 28.046C28.1741 29.0035 28.5654 30.1602 29.516 30.63C30.4673 31.0995 31.6183 30.7042 32.0867 29.7464L32.4569 28.9903C32.4569 28.9903 32.5719 28.7863 32.5287 29.0119C32.261 30.4163 31.5217 34.6409 31.5217 34.6409C31.3421 35.52 31.9317 36.2393 32.8323 36.2393C32.8323 36.2393 34.4389 36.2393 34.9743 36.2393C35.1276 36.2393 35.1004 36.3544 35.1004 36.3544V44.8459C35.1004 46.2681 35.9895 47.0138 37.0868 47.0138C38.1838 47.0138 39.0734 46.2681 39.0734 44.8459V36.3205C39.0734 36.3205 39.069 36.2363 39.1583 36.2393C39.2737 36.243 39.5658 36.2398 39.6968 36.2398C39.7714 36.2398 39.762 36.3294 39.762 36.3294V44.8459C39.762 46.2681 40.6517 47.0138 41.7491 47.0138C42.846 47.0138 43.7355 46.2681 43.7355 44.8459V36.3771C43.7355 36.3771 43.7225 36.2393 43.887 36.2393C44.4632 36.2393 46.1912 36.2393 46.1912 36.2393C47.0917 36.2393 47.6958 35.5173 47.5334 34.6348C47.5334 34.6348 46.7925 30.1038 46.5951 28.8694C46.5385 28.5156 47.1286 29.7719 47.1286 29.7719C47.5799 30.7376 48.4513 31.1408 49.4106 30.6884C50.3707 30.236 50.7828 29.0864 50.3315 28.1203Z" fill="#164F91"/>
</g>
<g id="Group_5">
<g id="Group_6">
<g id="Group_7">
<path id="Vector_5" d="M26.4232 45.976C26.4232 46.4985 25.9942 46.926 25.4695 46.926H25.0608C24.5362 46.926 24.1071 46.4985 24.1071 45.976V4.35843C24.1071 3.83591 24.5362 3.40839 25.0608 3.40839H25.4695C25.9941 3.40839 26.4232 3.83591 26.4232 4.35843V45.976Z" fill="#164F91"/>
</g>
</g>
</g>
</g>
</g>
</g>
<defs>
<clipPath id="clip0_10_218">
<rect width="50.0385" height="49.8454" fill="white" transform="translate(0.475952)"/>
</clipPath>
</defs>
</svg>
