<svg width="41" height="40" viewBox="0 0 41 40" fill="none" xmlns="http://www.w3.org/2000/svg">
<g id="007-cartes-et-drapeaux" clip-path="url(#clip0_12_275)">
<g id="Group">
<g id="Group_2">
<path id="Vector" d="M20.0865 0C12.0641 0 5.53735 6.49859 5.53735 14.4864C5.53735 24.3995 18.5574 38.9526 19.1117 39.5673C19.6324 40.1447 20.5415 40.1437 21.0612 39.5673C21.6156 38.9526 34.6356 24.3995 34.6356 14.4864C34.6355 6.49859 28.1089 0 20.0865 0ZM20.0865 21.7749C16.0502 21.7749 12.7665 18.5053 12.7665 14.4864C12.7665 10.4675 16.0503 7.19797 20.0865 7.19797C24.1227 7.19797 27.4064 10.4676 27.4064 14.4865C27.4064 18.5054 24.1227 21.7749 20.0865 21.7749Z" fill="black"/>
</g>
</g>
</g>
<defs>
<clipPath id="clip0_12_275">
<rect width="40.173" height="40" fill="white"/>
</clipPath>
</defs>
</svg>
