<svg width="41" height="41" viewBox="0 0 41 41" fill="none" xmlns="http://www.w3.org/2000/svg">
<g id="faucet 1" clip-path="url(#clip0_10_246)">
<g id="Group">
<path id="Vector" d="M36.7424 32.1335C36.533 31.771 36.1462 31.5477 35.7275 31.5477C35.3089 31.5477 34.9221 31.7709 34.7127 32.1335L32.6816 35.6507C32.3743 36.183 32.2119 36.7902 32.2119 37.407C32.2119 39.3456 33.789 40.9227 35.7275 40.9227C37.6661 40.9227 39.2432 39.3456 39.2432 37.407C39.2432 36.7903 39.0807 36.1831 38.7734 35.6506L36.7424 32.1335Z" fill="#164F91"/>
<path id="Vector_2" d="M29.8682 12.7977H23.7761C22.5279 11.5799 20.9366 10.7914 19.2432 10.5406V5.61017H21.7885C22.2722 6.97407 23.5748 7.95392 25.1025 7.95392C27.0411 7.95392 28.6182 6.37681 28.6182 4.43829C28.6182 2.49978 27.0411 0.922668 25.1025 0.922668C23.5748 0.922668 22.2722 1.90251 21.7885 3.26642H14.3541C13.8704 1.90251 12.5678 0.922668 11.04 0.922668C9.10152 0.922668 7.52441 2.49978 7.52441 4.43829C7.52441 6.37681 9.10152 7.95392 11.04 7.95392C12.5678 7.95392 13.8704 6.97407 14.3541 5.61017H16.8994V10.5406C15.206 10.7915 13.6146 11.5799 12.3665 12.7977H2.75879V9.28204C2.75879 8.63486 2.2341 8.11017 1.58691 8.11017C0.939727 8.11017 0.415039 8.63486 0.415039 9.28204V25.6883C0.415039 26.3355 0.939727 26.8602 1.58691 26.8602C2.2341 26.8602 2.75879 26.3355 2.75879 25.6883V22.1727H12.3665C13.8993 23.6683 15.9498 24.5164 18.0713 24.5164C20.1928 24.5164 22.2432 23.6683 23.7761 22.1727H29.8682C30.5143 22.1727 31.04 22.6984 31.04 23.3445V28.032C31.04 28.6792 31.5647 29.2039 32.2119 29.2039H39.2432C39.8904 29.2039 40.415 28.6792 40.415 28.032V23.3445C40.415 17.529 35.6837 12.7977 29.8682 12.7977Z" fill="#164F91"/>
</g>
</g>
<defs>
<clipPath id="clip0_10_246">
<rect width="40" height="40" fill="white" transform="translate(0.415039 0.922668)"/>
</clipPath>
</defs>
</svg>
