<svg width="85" height="109" viewBox="0 0 85 109" fill="none" xmlns="http://www.w3.org/2000/svg">
<g id="walter 1" clip-path="url(#clip0_10_192)">
<g id="layer1">
<path id="path1" d="M2.25759 108.926C1.74052 108.783 1.05418 108.158 0.861635 107.655C0.63319 107.058 0.716078 106.153 1.0483 105.618C1.36667 105.105 2.29573 104.565 2.85989 104.565C3.41136 104.565 4.39193 105.122 4.69922 105.609C5.08846 106.227 5.04392 107.521 4.6136 108.097C4.07021 108.824 3.11101 109.161 2.25759 108.926ZM10.5455 108.587C9.21207 107.684 9.23083 105.717 10.5804 104.924C11.0445 104.651 11.3856 104.628 15.7364 104.587L20.3955 104.543V94.0451V83.5472L19.2197 83.4794C18.1834 83.4196 17.9788 83.3592 17.4955 82.97C16.3725 82.0659 16.3689 82.0488 16.2867 77.2533L16.2133 72.9703L15.1128 73.7241C13.5107 74.8214 12.7004 75.5305 9.74626 78.4201C6.77418 81.3272 6.12978 81.7516 4.6836 81.7541C3.39055 81.7565 2.55388 81.3921 1.52403 80.3785C0.402365 79.2745 -0.00234859 78.3093 1.02439e-05 76.7437C0.00273497 75.0602 0.471288 73.8737 2.08625 71.463C5.6781 66.1012 10.3243 61.5122 15.173 58.5373C15.9559 58.0569 16.5809 57.6086 16.5618 57.5411C16.5427 57.4735 16.1263 57.1157 15.6365 56.746C12.6719 54.5082 10.9253 51.3826 10.7584 48.0165C10.7158 47.1579 10.742 46.2983 10.8166 46.1062C10.9481 45.7677 10.9645 45.7778 11.35 46.4332C11.5688 46.8051 12.0666 47.4269 12.4562 47.815C14.092 49.4444 15.6705 50.0942 17.9742 50.0866C20.2851 50.079 21.5713 49.5433 24.4563 47.3865C27.5616 45.0651 29.1278 44.4102 31.5478 44.421C33.4321 44.4294 34.3817 44.7967 35.5637 45.9741C36.4269 46.8339 36.4269 46.8339 36.6615 46.4985C37.0872 45.8901 37.7735 45.3314 38.5288 44.9784C41.2487 43.7073 44.2825 44.357 47.8361 46.9717C50.2265 48.7305 51.136 49.2827 52.2556 49.655C54.4659 50.3901 56.5624 50.2631 58.4404 49.2803C59.4734 48.7397 60.8303 47.4534 61.4137 46.4618C61.6286 46.0965 61.873 45.7976 61.9567 45.7976C62.0577 45.7976 62.0848 46.4251 62.037 47.6613C61.9537 49.8177 61.5895 51.1224 60.5578 52.96C59.8422 54.2346 57.8855 56.2593 56.6026 57.0528C56.1477 57.3341 55.7885 57.6084 55.8045 57.6623C55.8205 57.7161 56.5599 58.2437 57.4477 58.8346C60.0226 60.5485 63.2115 63.1624 67.6419 67.1906C68.4062 67.8855 69.0665 68.4531 69.1093 68.4519C69.152 68.4507 69.3731 67.8422 69.6006 67.0998C69.828 66.3574 71.167 62.2754 72.576 58.0288L75.1378 50.3077L74.1866 49.2843C73.0048 48.0128 72.6082 47.0844 72.5204 45.3832C72.3146 41.3949 75.3149 38.5429 79.4221 38.8226C83.6884 39.113 86.2596 43.6908 84.3708 47.6329C83.5928 49.2567 82.0133 50.4837 80.079 50.9668C79.3122 51.1582 79.3122 51.1582 77.4045 56.85C76.3553 59.9805 74.8455 64.5324 74.0493 66.9653L72.6017 71.3889L73.4308 72.2547C73.9185 72.764 74.4541 73.529 74.7316 74.1127C75.1598 75.0132 75.2034 75.233 75.2034 76.4934C75.2034 77.7088 75.1517 77.9935 74.789 78.7752C73.9742 80.5314 72.2276 81.7295 70.2798 81.8684C69.4443 81.9279 69.2679 81.9882 69.1453 82.2563C69.0654 82.4309 68.5049 84.1163 67.8996 86.0016C67.2943 87.887 65.9702 91.9948 64.9571 95.1301C61.5707 105.611 61.8808 104.465 62.3892 104.62C62.9041 104.777 63.651 105.475 63.8437 105.98C64.2041 106.924 63.7162 108.19 62.806 108.672C62.3138 108.933 61.3413 108.943 36.6834 108.943C11.0722 108.943 11.0722 108.943 10.5455 108.587ZM29.0939 96.8396C29.4794 92.5944 29.8627 88.8762 29.9456 88.577C30.0286 88.2777 30.3005 87.8014 30.5499 87.5184C31.3799 86.5768 31.6329 86.5271 35.8033 86.486C39.9534 86.4451 40.6421 86.5394 41.4054 87.2526C42.377 88.1605 42.4235 88.4532 43.3665 99.5883C43.5673 101.96 43.765 104.048 43.8057 104.229C43.8776 104.549 43.9317 104.558 45.7112 104.558H47.5427V94.1278V83.6974L46.6407 83.6035C46.1446 83.5519 41.0685 83.5096 35.3605 83.5096H24.9823L24.8862 84.2311C24.8334 84.628 24.7954 89.3639 24.8019 94.7554L24.8136 104.558L26.6032 104.558L28.3929 104.558L29.0939 96.8396ZM39.1303 102.94C39.0139 100.913 38.1604 91.2478 38.0761 91.0008C38.0304 90.8672 37.5014 90.8181 36.1081 90.8181C34.2025 90.8181 34.2025 90.8181 34.1223 91.2932C34.0543 91.6957 33.2077 100.464 32.9368 103.571L32.8507 104.558H36.037H39.2232L39.1303 102.94ZM57.8935 103.389C58.2117 102.338 59.7454 97.5502 61.3237 92.6818C61.7342 91.4156 62.4049 89.3436 62.8142 88.0774C63.2234 86.8112 63.9312 84.6378 64.387 83.2476C65.2158 80.7199 65.2158 80.7199 64.7785 80.3242C61.7476 77.5811 56.4314 73.1308 56.1866 73.1317C56.1538 73.1318 56.127 75.0229 56.127 77.3341C56.127 82.062 56.1286 82.0546 54.9763 82.9825C54.4644 83.3948 54.3004 83.4412 53.1942 83.4874C51.9758 83.5383 51.9758 83.5383 51.887 83.9808C51.8381 84.2241 51.7982 88.9549 51.7982 94.4937V104.564L54.68 104.525L57.5617 104.485L57.8935 103.389ZM27.2677 79.1243L32.7952 79.1242L34.1158 77.8986C35.4365 76.6729 35.4365 76.6729 35.03 76.351C33.8958 75.4528 33.9186 73.8304 35.0769 73.0223C35.539 72.6999 36.6857 72.711 37.1941 73.0429C37.4131 73.1858 37.7016 73.494 37.8351 73.7277C37.9686 73.9615 38.1209 74.1367 38.1735 74.1172C38.2693 74.0816 39.2948 73.1689 42.3271 70.4204C43.2183 69.6126 44.938 68.0708 46.1486 66.9942C47.3592 65.9176 49.0431 64.3677 49.8905 63.55C50.738 62.7322 51.6624 61.8621 51.9448 61.6164C52.5082 61.1263 52.4496 60.773 51.8804 61.2284C50.1934 62.5782 48.093 64.069 47.8783 64.069C47.8095 64.069 47.3228 64.2966 46.7967 64.5749C45.0906 65.4773 42.3559 66.2626 39.1528 66.7699C38.6136 66.8553 38.6136 66.8553 38.9731 68.1297C39.5934 70.3287 39.7188 70.0355 37.8171 70.8332L36.1527 71.5315L34.7504 70.8698C33.9792 70.5059 33.2733 70.2081 33.1817 70.2081C32.9392 70.2081 32.9696 69.9827 33.4344 68.3334C33.6649 67.5154 33.8035 66.8462 33.7425 66.8462C33.6814 66.8462 32.8702 66.7166 31.9399 66.5581C27.8051 65.854 23.6687 63.9319 21.1938 61.5647L20.289 60.6992L19.205 61.3074C16.4545 62.8507 13.7147 65.0014 10.8573 67.8601C9.68704 69.0309 8.21492 70.6618 7.58592 71.4843C6.15396 73.3568 4.5869 75.9159 4.46017 76.5888C4.26735 77.6126 4.60859 77.4358 6.24949 75.6617C9.82266 71.7983 12.2503 69.9006 15.7848 68.2076C18.4559 66.9282 19.7232 67.0067 20.4008 68.4936C20.6608 69.0641 20.6828 69.4975 20.6858 74.108C20.6889 79.1042 20.6889 79.1042 21.0191 79.1669C21.2007 79.2014 21.4373 79.206 21.5447 79.1771C21.6522 79.1482 24.2275 79.1244 27.2677 79.1243ZM46.1853 79.1336L51.7982 79.1245V74.0769C51.7982 68.5359 51.8175 68.3943 52.6699 67.6798C53.392 67.0746 54.1629 67.1356 55.849 67.9311C58.3549 69.1136 60.2559 70.5011 64.822 74.4805C66.4575 75.9057 67.9898 77.1719 68.2272 77.2942C68.4646 77.4165 68.9923 77.5166 69.3999 77.5166C70.327 77.5166 70.7278 77.1776 70.7278 76.3934C70.7278 75.6704 71.2981 76.2008 61.6298 67.9327C60.2175 66.7248 58.4943 65.2679 57.8005 64.6951C56.5392 63.6535 56.5392 63.6535 56.1864 63.9741C55.2252 64.8474 52.2014 67.5516 50.0519 69.46C46.6804 72.4533 39.3251 79.1477 39.3251 79.2228C39.3251 79.2572 39.6058 79.2532 39.9488 79.214C40.2918 79.1747 43.0982 79.1386 46.1853 79.1336ZM39.7654 62.2229C42.2961 61.797 45.1811 60.6528 46.9926 59.3567L47.6898 58.8578L46.0199 58.624C41.6839 58.0169 38.2297 55.9419 36.7318 53.0446L36.36 52.3254L35.9047 53.1908C35.3026 54.3354 33.2281 56.3938 32.0614 57.0041C30.5977 57.7699 28.6607 58.36 26.7231 58.6305L24.9065 58.8841L25.7693 59.4869C29.4666 62.0702 34.6512 63.0837 39.7654 62.2229ZM80.1365 46.2534C80.6247 45.7671 80.7062 45.5945 80.7057 45.0474C80.7049 44.2424 80.3094 43.5821 79.6375 43.2645C79.037 42.9807 78.6836 42.9602 78.1111 43.1763C76.6857 43.7143 76.4022 45.3577 77.56 46.3703C77.9909 46.7472 78.1971 46.8208 78.821 46.8208C79.4917 46.8208 79.6242 46.7637 80.1365 46.2534ZM69.451 108.657C67.7875 107.647 68.3386 104.959 70.276 104.633C70.9932 104.512 71.9579 104.922 72.4055 105.537C72.8276 106.117 72.8739 107.289 72.4982 107.885C71.858 108.9 70.4424 109.259 69.451 108.657ZM13.564 46.6807C13.0454 46.4715 12.347 45.5417 12.1062 44.74C11.6202 43.1221 11.6525 41.6634 12.2828 36.7716L12.3629 36.1504H10.3203C7.27119 36.1504 5.94881 35.714 4.53746 34.2419C1.57734 31.1545 2.36619 26.3322 6.12118 24.5604C7.1154 24.0913 7.1154 24.0913 11.3161 24.0467L15.5167 24.002L15.6198 22.9504C16.1622 17.4186 18.1383 10.7602 20.4612 6.63764C23.2939 1.61019 25.9174 -0.402481 29.0166 0.0741851C30.1503 0.248556 31.2197 0.765908 33.9377 2.45493C35.1958 3.2367 36.2687 3.87956 36.322 3.88353C36.3753 3.88748 37.2875 3.32937 38.349 2.64326C41.0677 0.885968 42.0822 0.360444 43.2095 0.125497C45.2104 -0.291516 46.9324 0.322354 48.7278 2.0927C52.6532 5.96338 55.8832 14.0768 56.8124 22.4005L56.9908 23.9994L61.4014 24.0454C65.812 24.0913 65.812 24.0914 66.6924 24.5293C69.0504 25.7023 70.4452 28.3212 70.0132 30.7643C69.671 32.6993 68.3786 34.5324 66.7918 35.3333C65.5443 35.963 64.5385 36.1504 62.4061 36.1504C61.3335 36.1504 60.4565 36.1997 60.4571 36.26C60.4579 36.3203 60.5556 37.0932 60.6744 37.9775C60.9282 39.8666 60.9576 42.5561 60.7392 43.8971C60.4628 45.5942 59.6545 46.5606 58.3541 46.7486C57.5831 46.8601 56.6741 46.5557 56.3042 46.0622C56.0655 45.7437 56.0507 45.6169 56.1947 45.1245C56.2864 44.8114 56.3999 43.6672 56.4471 42.5819C56.5295 40.6866 56.4198 39.2645 56.0215 37.064L55.8562 36.1504H36.3888H16.9214L16.6752 37.5233C16.2336 39.9862 16.1096 41.9297 16.2873 43.6051C16.3769 44.4492 16.4831 45.2743 16.5235 45.4386C16.7459 46.3444 14.778 47.1704 13.564 46.6807ZM63.5748 31.6413C64.5225 31.5554 64.7757 31.4753 65.0899 31.1624C65.5868 30.6674 65.7257 29.7249 65.3792 29.1982C64.8227 28.3521 66.5866 28.3978 36.0868 28.4388C8.04512 28.4764 8.04513 28.4764 7.61695 28.9538C7.04332 29.5933 7.02941 30.3849 7.58032 31.037C7.79568 31.292 8.10934 31.556 8.27734 31.6237C8.64486 31.7718 61.9486 31.7888 63.5748 31.6413ZM52.484 23.8224C52.5712 23.7355 52.3734 22.2224 52.0763 20.7026L51.9281 19.9449L36.2542 19.9315L20.5802 19.918L20.3411 21.4473C20.2096 22.2883 20.102 23.2205 20.102 23.5187V24.0609L36.2483 23.9861C45.1288 23.945 52.4348 23.8713 52.484 23.8224ZM45.5091 15.5898L50.886 15.4935L50.6102 14.5021C50.0183 12.3746 48.5661 9.29205 47.2221 7.31049C46.5733 6.35384 45.009 4.6458 44.5643 4.40842C44.2638 4.248 43.5308 4.62243 40.8169 6.32284C39.911 6.89044 39.1427 7.35484 39.1096 7.35484C39.0764 7.35484 38.4143 7.74937 37.6381 8.23158L36.2268 9.10832L34.6791 8.14055C31.7738 6.3239 28.2756 4.28526 28.0637 4.28526C27.7009 4.28526 26.0695 6.05214 25.1704 7.41905C24.085 9.06897 22.7545 11.8303 22.0859 13.8207C21.8018 14.6663 21.5694 15.432 21.5694 15.5223C21.5694 15.7107 36.4205 15.7526 45.5091 15.5898ZM26.3385 42.2228C25.172 41.7988 24.3565 40.416 24.5783 39.2383C24.8701 37.6889 25.9807 36.7743 27.4041 36.9113C28.7579 37.0415 29.6012 37.7338 29.9532 39.0037C30.5086 41.0073 28.3306 42.9468 26.3385 42.2228ZM44.8497 42.2902C44.1647 42.0782 43.4703 41.5275 43.1319 40.9277C42.6693 40.1077 42.7692 38.7367 43.3467 37.9826C44.0192 37.1044 44.5367 36.8573 45.5812 36.9157C46.7428 36.9806 47.5189 37.4654 47.9608 38.402C48.3653 39.2591 48.3608 40.015 47.9462 40.8317C47.4028 41.9024 45.8936 42.6133 44.8497 42.2902Z" fill="black"/>
</g>
</g>
<defs>
<clipPath id="clip0_10_192">
<rect width="85" height="109" fill="white"/>
</clipPath>
</defs>
</svg>
