<?xml version="1.0" encoding="UTF-8" standalone="no"?>
<!-- Created with Inkscape (http://www.inkscape.org/) -->

<svg
   width="210mm"
   height="297mm"
   viewBox="0 0 210 297"
   version="1.1"
   id="svg1"
   inkscape:version="1.3.2 (091e20ef0f, 2023-11-25, custom)"
   sodipodi:docname="walter_icon.svg"
   xmlns:inkscape="http://www.inkscape.org/namespaces/inkscape"
   xmlns:sodipodi="http://sodipodi.sourceforge.net/DTD/sodipodi-0.dtd"
   xmlns="http://www.w3.org/2000/svg"
   xmlns:svg="http://www.w3.org/2000/svg">
  <sodipodi:namedview
     id="namedview1"
     pagecolor="#ffffff"
     bordercolor="#000000"
     borderopacity="0.25"
     inkscape:showpageshadow="2"
     inkscape:pageopacity="0.0"
     inkscape:pagecheckerboard="0"
     inkscape:deskcolor="#d1d1d1"
     inkscape:document-units="mm"
     inkscape:zoom="0.75900673"
     inkscape:cx="283.26494"
     inkscape:cy="416.33359"
     inkscape:window-width="1920"
     inkscape:window-height="1056"
     inkscape:window-x="0"
     inkscape:window-y="0"
     inkscape:window-maximized="1"
     inkscape:current-layer="layer1" />
  <defs
     id="defs1">
    <clipPath
       id="clip0_12_275">
      <rect
         width="40.173"
         height="40"
         fill="#ffffff"
         id="rect1"
         x="0"
         y="0" />
    </clipPath>
  </defs>
  <g
     inkscape:label="Layer 1"
     inkscape:groupmode="layer"
     id="layer1">
    <g
       id="007-cartes-et-drapeaux"
       clip-path="url(#clip0_12_275)"
       transform="matrix(4.481477,0,0,4.481477,14.55682,53.026913)"
       style="fill:#009700;fill-opacity:1">
      <g
         id="Group"
         style="fill:#009700;fill-opacity:1">
        <g
           id="Group_2"
           style="fill:#009700;fill-opacity:1">
          <path
             id="Vector"
             d="m 11.176131,7.4253077 c -2.0056002,0 0.124415,3.9298003 -1.5733089,4.6690773 -1.697725,0.739278 -5.29811,-0.446915 -6.5540061,0.871577 -0.627948,0.659246 -1.4398056,3.168464 -0.089604,3.749994 1.3502017,0.58153 4.8624627,-0.764628 4.5224056,0.104194 -0.6801143,1.737644 -1.2038563,2.434797 -1.1742357,4.43153 0.1650068,11.12315 12.4700271,24.411198 13.0243271,25.025898 0.5207,0.5774 1.4298,0.5764 1.9495,0 0.5544,-0.6147 13.299389,-13.627736 13.409393,-24.915893 -1.2e-5,-0.998476 -0.830563,-2.901291 -0.981298,-3.672941 -0.150736,-0.77165 4.751024,-1.869695 4.390141,-2.743694 C 37.377682,13.197052 31.803523,12.37274 30.506918,11.040553 29.858616,10.374459 31.092263,8.1372854 30.327792,7.6064295 29.563322,7.0755737 26.061777,-0.46088147 25.199502,-0.83564202 24.337227,-1.2104027 23.821903,-0.85643461 20.782329,1.302493 19.262542,2.3819568 16.489413,-1.9212122 14.59316,-0.66037447 12.696907,0.60046323 11.677531,7.4253077 11.176131,7.4253077 Z"
             fill="#000000"
             style="fill:#ffffff;fill-opacity:1"
             sodipodi:nodetypes="sssssscccssssssss" />
        </g>
      </g>
    </g>
    <path
       id="path22"
       d="m 106.75572,180.04243 -0.97606,-1.88744 -1.19497,2.27121 c -1.58013,3.00395 -7.024613,8.40617 -10.086593,10.00783 -3.841422,2.00984 -8.925037,3.55853 -14.010138,4.26845 l -4.767687,0.66558 c -7.852871,0.51382 -17.067851,-1.2892 -24.328741,-5.61141 -7.780559,-5.87299 -12.364441,-14.07601 -12.802476,-22.91029 -0.112083,-2.25335 -0.03967,-4.50929 0.152757,-5.01349 0.34519,-0.88876 0.387842,-0.86198 1.399904,0.85802 0.574324,0.97605 1.880689,2.60787 2.903164,3.62648 4.293151,4.27628 8.435825,5.9817 14.481805,5.96176 6.064926,-0.0198 9.440446,-1.4259 17.012105,-7.08641 8.149754,-6.09241 12.260192,-7.81111 18.611383,-7.78284 4.945239,0.0198 7.437457,0.98598 10.539597,4.07611 2.26547,2.25654 2.26547,2.25654 2.88115,1.3762 1.11721,-1.5967 2.91844,-3.06296 4.90071,-3.98942 7.13829,-3.33594 15.10037,-1.63082 24.42664,5.23142 6.27353,4.61582 8.6605,6.06511 11.59887,7.04216 5.80088,1.92929 11.30309,1.59601 16.23176,-0.98299 2.71113,-1.41875 6.27225,-4.79457 7.80338,-7.39709 0.5644,-0.9582 1.20539,-1.74311 1.42509,-1.74311 0.26485,0 0.33626,1.6468 0.2103,4.89119 -0.21823,5.65942 -1.17444,9.08355 -3.8821,13.90629 -1.87801,3.34516 -5.15752,11.84853 -26.47239,14.84534 -21.31478,2.9967 -32.12696,-7.01946 -36.05815,-14.62336 z M 45.952609,163.34059 c -1.361119,-0.54852 -3.193998,-2.98926 -3.825953,-5.09323 -1.275516,-4.24613 -1.190707,-8.07446 0.463229,-20.91285 l 0.210288,-1.63033 h -5.360758 c -8.002364,0 -11.47291,-1.14528 -15.176956,-5.00882 -7.768656,-8.10275 -5.698409,-20.75871 4.156462,-25.40876 2.609259,-1.23117 2.609259,-1.23117 13.633918,-1.34822 l 11.024351,-0.11705 0.270796,-2.75993 c 1.42351,-14.518008 6.60969,-31.992717 12.706061,-42.812237 7.434376,-13.194424 14.319624,-18.476613 22.453405,-17.225616 2.975385,0.457674 5.781929,1.8154 12.915255,6.248183 3.301823,2.051737 6.117603,3.738902 6.257473,3.749317 0.13985,0.01096 2.53397,-1.45437 5.31978,-3.25505 7.13522,-4.611954 9.79774,-5.991177 12.75626,-6.607787 5.25135,-1.09443 9.77066,0.516694 14.4826,5.16286 10.30213,10.1585 18.77911,31.451822 21.21776,53.297181 l 0.4682,4.196239 11.57556,0.12101 c 11.57546,0.12003 11.57546,0.12102 13.88605,1.26996 6.18843,3.07854 9.84903,9.95169 8.71526,16.36359 -0.89771,5.07836 -4.28989,9.8892 -8.45438,11.99118 -3.27405,1.65265 -5.91375,2.14444 -11.5102,2.14444 -2.81498,0 -5.11664,0.12895 -5.11506,0.28766 0.002,0.15872 0.2589,2.1867 0.57036,4.5075 0.66558,4.95785 0.74295,12.01638 0.17061,15.53583 -0.72509,4.45395 -2.84682,6.9903 -6.25964,7.48368 -2.02343,0.29262 -4.4091,-0.50588 -5.3799,-1.80143 -0.6269,-0.8362 -0.66559,-1.16869 -0.28766,-2.46097 0.24104,-0.82131 0.53862,-3.82466 0.6626,-6.67298 0.21624,-4.9742 -0.0695,-8.70642 -1.117,-14.4816 l -0.43347,-2.39769 H 105.85634 54.76477 l -0.645744,3.60317 c -1.158964,6.46379 -1.484415,11.56446 -1.018012,15.96147 0.235086,2.21527 0.513817,4.38073 0.619953,4.81192 0.583252,2.37724 -4.581006,4.5451 -7.767069,3.25987 z M 177.2043,123.87021 c 2.48725,-0.22517 3.15174,-0.43545 3.97633,-1.25686 1.30408,-1.29913 1.66862,-3.77269 0.75882,-5.15504 -1.46051,-2.22052 3.1688,-2.10059 -76.87695,-1.99297 -73.594483,0.0992 -73.594384,0.0992 -74.718135,1.3516 -1.505543,1.67834 -1.542047,3.75582 -0.09919,5.46729 0.565397,0.66955 1.388397,1.36211 1.829307,1.53976 0.964151,0.38884 140.858588,0.43347 145.126448,0.0496 z m -29.10743,-20.52044 c 0.22913,-0.22814 -0.29065,-4.199212 -1.06999,-8.187841 l -0.38884,-1.988611 -41.13562,-0.03967 -41.135918,-0.03967 -0.627888,4.013526 c -0.345189,2.207232 -0.627888,4.653716 -0.627888,5.436346 v 1.42301 l 42.375424,-0.1964 c 23.30666,-0.10812 42.48097,-0.30155 42.61011,-0.42951 z m -18.30538,-21.606202 14.11152,-0.252942 -0.72411,-2.601918 c -1.55336,-5.583544 -5.36463,-13.673554 -8.89191,-18.874116 -1.70274,-2.510661 -5.80821,-6.993367 -6.97531,-7.616396 -0.78858,-0.420576 -2.71242,0.56143 -9.83494,5.024297 -2.37754,1.489673 -4.39393,2.708451 -4.48073,2.708451 -0.0893,0 -1.82484,1.035471 -3.86195,2.301067 l -3.70385,2.300968 -4.06193,-2.539923 C 93.743444,57.42537 84.562493,52.075027 84.006412,52.075027 c -0.952244,0 -5.233789,4.63705 -7.59338,8.224445 -2.848609,4.330248 -6.340482,11.57725 -8.095196,16.800895 -0.745929,2.219333 -1.355565,4.228873 -1.355565,4.465844 0,0.49497 38.976299,0.604082 62.829019,0.177555 z M 79.478873,151.64104 c -3.061476,-1.11284 -5.201753,-4.74189 -4.619591,-7.83274 0.765766,-4.06639 3.680536,-6.46675 7.416225,-6.10718 3.552977,0.34123 5.766157,2.15863 6.690036,5.4915 1.45763,5.2583 -4.258532,10.34845 -9.48667,8.44842 z m 48.581997,0.17657 c -1.79776,-0.55648 -3.62012,-2.00171 -4.50829,-3.5759 -1.21411,-2.15198 -0.95224,-5.75018 0.56341,-7.72928 1.76493,-2.30483 3.12317,-2.95336 5.86435,-2.8 3.04859,0.17061 5.08551,1.44265 6.24527,3.90074 1.06155,2.24939 1.04975,4.23325 -0.0396,6.37659 -1.42609,2.81003 -5.38695,4.67584 -8.12664,3.82785 z"
       fill="#000000"
       sodipodi:nodetypes="scccsccccccccscccccscscsccscccsccccccscccscccccccscsscccccccccccsccccccscccccccsccccccccsscccsccsccscccccccccccccccc"
       style="stroke-width:2.62446" />
    <path
       style="fill:#ffffff;fill-opacity:1;stroke:#000000;stroke-width:12.621;stroke-linecap:round;stroke-linejoin:round;stroke-dasharray:none;stroke-opacity:1"
       d="m 66.864123,202.87485 c 13.233209,29.26542 38.387727,56.43415 38.387727,56.43415 0,0 25.38862,-26.86756 39.68513,-55.46057"
       id="path1"
       sodipodi:nodetypes="ccc" />
  </g>
</svg>
