<?xml version="1.0" encoding="UTF-8" standalone="no"?>
<svg
   width="85"
   height="109"
   viewBox="0 0 85 109"
   fill="none"
   version="1.1"
   id="svg1"
   sodipodi:docname="walter-black.svg"
   xmlns:inkscape="http://www.inkscape.org/namespaces/inkscape"
   xmlns:sodipodi="http://sodipodi.sourceforge.net/DTD/sodipodi-0.dtd"
   xmlns="http://www.w3.org/2000/svg"
   xmlns:svg="http://www.w3.org/2000/svg">
  <sodipodi:namedview
     id="namedview1"
     pagecolor="#ffffff"
     bordercolor="#000000"
     borderopacity="0.25"
     inkscape:showpageshadow="2"
     inkscape:pageopacity="0.0"
     inkscape:pagecheckerboard="0"
     inkscape:deskcolor="#d1d1d1" />
  <g
     id="layer1"
     transform="translate(-11.136932,-17.147339)"
     clip-path="url(#clipPath22)">
    <path
       id="path22"
       d="m 57.06112,114.03256 -0.3718,-0.7192 -0.4553,0.8654 c -0.6021,1.1446 -2.6766,3.203 -3.8433,3.8133 -1.4637,0.7658 -3.4007,1.3559 -5.3383,1.6264 l -1.8166,0.2536 c -2.992197,0.19573 -6.503369,-0.49122 -9.27,-2.1381 -2.9646,-2.2378 -4.7112,-5.3634 -4.8781,-8.7295 -0.0426,-0.8586 -0.0164,-1.7182 0.0582,-1.9103 0.1315,-0.3385 0.1479,-0.3284 0.5334,0.327 0.2188,0.3719 0.7166,0.9937 1.1062,1.3818 1.6358,1.6294 3.2143,2.2792 5.518,2.2716 2.3109,-0.008 3.5971,-0.5433 6.4821,-2.7001 3.1053,-2.3214 4.6715,-2.9763 7.0915,-2.9655 1.8843,0.008 2.8339,0.3757 4.0159,1.5531 0.8632,0.8598 0.8632,0.8598 1.0978,0.5244 0.4257,-0.6084 1.112,-1.1671 1.8673,-1.5201 2.7199,-1.2711 5.7537,-0.6214 9.3073,1.9933 2.3904,1.7588 3.2999,2.311 4.4195,2.6833 2.2103,0.7351 4.3068,0.6081 6.1848,-0.3747 1.033,-0.5406 2.3899,-1.8269 2.9733,-2.8185 0.2149,-0.3653 0.4593,-0.6642 0.543,-0.6642 0.101,0 0.1281,0.6275 0.0803,1.8637 -0.0833,2.1564 -0.4475,3.4611 -1.4792,5.2987 -0.7156,1.2746 -1.965193,4.51464 -10.086766,5.6565 -8.121573,1.14187 -12.241334,-2.6746 -13.739234,-5.5719 z m -23.1678,-6.3639 c -0.5186,-0.2092 -1.217,-1.139 -1.4578,-1.9407 -0.486,-1.6179 -0.4537,-3.0766 0.1766,-7.9684 l 0.0801,-0.6212 h -2.0426 c -3.04911,0 -4.37149,-0.4364 -5.78284,-1.9085 -2.96012,-3.0874 -2.17127,-7.9097 1.58372,-9.6815 0.99422,-0.4691 0.99422,-0.4691 5.19492,-0.5137 l 4.2006,-0.0447 0.1031,-1.0516 c 0.5424,-5.5318 2.5185,-12.1902 4.8414,-16.31276 2.8327,-5.02745 5.4562,-7.040121 8.5554,-6.563455 1.1337,0.174371 2.2031,0.691723 4.9211,2.380745 1.2581,0.78177 2.331,1.42463 2.3843,1.4286 0.0533,0.004 0.9655,-0.55416 2.027,-1.24027 2.7187,-1.757292 3.7332,-2.282816 4.8605,-2.517763 2.0009,-0.417013 3.7229,0.196857 5.5183,1.967203 3.9254,3.87068 7.1554,11.9841 8.0846,20.3078 l 0.1784,1.5989 4.4106,0.046 c 4.4106,0.0459 4.4106,0.046 5.291,0.4839 2.358,1.173 3.7528,3.7919 3.3208,6.235 -0.3422,1.935 -1.6346,3.7681 -3.2214,4.569 -1.2475,0.6297 -2.2533,0.8171 -4.3857,0.8171 -1.0726,0 -1.9496,0.0493 -1.949,0.1096 8e-4,0.0603 0.0985,0.8332 0.2173,1.7175 0.2538,1.8891 0.2832,4.5786 0.0648,5.9196 -0.2764,1.6971 -1.0847,2.6635 -2.3851,2.8515 -0.771,0.1115 -1.68,-0.1929 -2.0499,-0.6864 -0.2387,-0.3185 -0.2535,-0.4453 -0.1095,-0.9377 0.0917,-0.3131 0.2052,-1.4573 0.2524,-2.5426 0.0824,-1.8953 -0.0273,-3.3174 -0.4256,-5.5179 l -0.1653,-0.9136 h -19.4674 -19.4674 l -0.2462,1.3729 c -0.4416,2.4629 -0.5656,4.4064 -0.3879,6.0818 0.0896,0.8441 0.1958,1.6692 0.2362,1.8335 0.2224,0.9058 -1.7455,1.7318 -2.9595,1.2421 z m 50.0108,-15.0394 c 0.9477,-0.0859 1.2009,-0.166 1.5151,-0.4789 0.4969,-0.495 0.6358,-1.4375 0.2893,-1.9642 -0.5565,-0.8461 1.2074,-0.8004 -29.2924,-0.7594 -28.04168,0.0376 -28.04167,0.0376 -28.46985,0.515 -0.57363,0.6395 -0.58754,1.4311 -0.03663,2.0832 0.21536,0.255 0.52902,0.519 0.69702,0.5867 0.36752,0.1481 53.67126,0.1651 55.29746,0.0176 z m -11.0908,-7.8189 c 0.0872,-0.0869 -0.1106,-1.6 -0.4077,-3.1198 l -0.1482,-0.7577 -15.6739,-0.0134 -15.674,-0.0135 -0.2391,1.5293 c -0.1315,0.841 -0.2391,1.7732 -0.2391,2.0714 v 0.5422 l 16.1463,-0.0748 c 8.8805,-0.0411 16.1865,-0.1148 16.2357,-0.1637 z m -6.9749,-8.2326 5.3769,-0.0963 -0.2758,-0.9914 c -0.5919,-2.1275 -2.0441,-5.21005 -3.3881,-7.19161 -0.6488,-0.95665 -2.2131,-2.66469 -2.6578,-2.90207 -0.3005,-0.16042 -1.0335,0.21401 -3.7474,1.91442 -0.9059,0.5676 -1.6742,1.032 -1.7073,1.032 -0.0332,0 -0.6953,0.39453 -1.4715,0.87674 l -1.4113,0.87674 -1.5477,-0.96777 c -2.9053,-1.81665 -6.4035,-3.85529 -6.6154,-3.85529 -0.3628,0 -1.9942,1.76688 -2.8933,3.13379 -1.0854,1.64992 -2.4159,4.41125 -3.0845,6.40165 -0.2841,0.8456 -0.5165,1.6113 -0.5165,1.7016 0,0.1884 14.8511,0.2303 23.9397,0.0675 z m -19.1706,26.633 c -1.1665,-0.424 -1.982,-1.8068 -1.7602,-2.9845 0.2918,-1.5494 1.4024,-2.464 2.8258,-2.327 1.3538,0.1302 2.1971,0.8225 2.5491,2.0924 0.5554,2.0036 -1.6226,3.9431 -3.6147,3.2191 z m 18.5112,0.0674 c -0.685,-0.212 -1.3794,-0.7627 -1.7178,-1.3625 -0.4626,-0.82 -0.3627,-2.191 0.2148,-2.9451 0.6725,-0.8782 1.19,-1.1253 2.2345,-1.0669 1.1616,0.0649 1.9377,0.5497 2.3796,1.4863 0.4045,0.8571 0.4,1.613 -0.0146,2.4297 -0.5434,1.0707 -2.0526,1.7816 -3.0965,1.4585 z"
       fill="#000000"
       sodipodi:nodetypes="ccccsccccccccscccccscscsccscccsccccccscccscccccccscsscccccccccccsccccccscccccccsccccccccsscccsccsccscccccccccc" />
  </g>
  <defs
     id="defs1">
    <clipPath
       clipPathUnits="userSpaceOnUse"
       id="clipPath22">
      <g
         id="g23"
         transform="translate(-5.1265242,2.298097)">
        <rect
           width="85"
           height="109"
           fill="#ffffff"
           id="rect22"
           x="5.126524"
           y="-2.2980969" />
      </g>
    </clipPath>
  </defs>
</svg>
