<?xml version="1.0" encoding="UTF-8" standalone="no"?>
<svg
   width="22.12216"
   height="22.122183"
   viewBox="0 0 22.12216 22.122183"
   fill="none"
   version="1.1"
   id="svg1"
   sodipodi:docname="faucet_icon.svg"
   inkscape:version="1.3.2 (091e20ef0f, 2023-11-25, custom)"
   xmlns:inkscape="http://www.inkscape.org/namespaces/inkscape"
   xmlns:sodipodi="http://sodipodi.sourceforge.net/DTD/sodipodi-0.dtd"
   xmlns="http://www.w3.org/2000/svg"
   xmlns:svg="http://www.w3.org/2000/svg">
  <sodipodi:namedview
     id="namedview1"
     pagecolor="#ffffff"
     bordercolor="#000000"
     borderopacity="0.25"
     inkscape:showpageshadow="2"
     inkscape:pageopacity="0.0"
     inkscape:pagecheckerboard="0"
     inkscape:deskcolor="#d1d1d1"
     inkscape:zoom="10.390244"
     inkscape:cx="-11.260563"
     inkscape:cy="13.762911"
     inkscape:window-width="1920"
     inkscape:window-height="1056"
     inkscape:window-x="0"
     inkscape:window-y="0"
     inkscape:window-maximized="1"
     inkscape:current-layer="svg1" />
  <defs
     id="defs1">
    <clipPath
       id="clip0_10_246">
      <rect
         width="40"
         height="40"
         fill="#ffffff"
         transform="translate(0.415039,0.922668)"
         id="rect1"
         x="0"
         y="0" />
    </clipPath>
    <clipPath
       id="clip0_12_275">
      <rect
         width="40.173"
         height="40"
         fill="#ffffff"
         id="rect1-7"
         x="0"
         y="0" />
    </clipPath>
  </defs>
  <g
     id="faucet 1"
     clip-path="url(#clip0_10_246)"
     transform="matrix(0.55305456,0,0,0.55305456,-0.22953921,-0.51028574)"
     style="fill:#164f91;fill-opacity:1">
    <g
       id="Group"
       style="fill:#164f91;fill-opacity:1">
      <path
         id="Vector"
         d="m 36.7424,32.1335 c -0.2094,-0.3625 -0.5962,-0.5858 -1.0149,-0.5858 -0.4186,0 -0.8054,0.2232 -1.0148,0.5858 l -2.0311,3.5172 c -0.3073,0.5323 -0.4697,1.1395 -0.4697,1.7563 0,1.9386 1.5771,3.5157 3.5156,3.5157 1.9386,0 3.5157,-1.5771 3.5157,-3.5157 0,-0.6167 -0.1625,-1.2239 -0.4698,-1.7564 z"
         fill="#164f91"
         style="fill:#164f91;fill-opacity:1" />
      <path
         id="Vector_2"
         d="M 29.8682,12.7977 H 23.7761 C 22.5279,11.5799 20.9366,10.7914 19.2432,10.5406 V 5.61017 h 2.5453 c 0.4837,1.3639 1.7863,2.34375 3.314,2.34375 1.9386,0 3.5157,-1.57711 3.5157,-3.51563 0,-1.93851 -1.5771,-3.515622 -3.5157,-3.515622 -1.5277,0 -2.8303,0.979842 -3.314,2.343752 H 14.3541 C 13.8704,1.90251 12.5678,0.922668 11.04,0.922668 c -1.93848,0 -3.51559,1.577112 -3.51559,3.515622 0,1.93852 1.57711,3.51563 3.51559,3.51563 1.5278,0 2.8304,-0.97985 3.3141,-2.34375 h 2.5453 v 4.93043 c -1.6934,0.2509 -3.2848,1.0393 -4.5329,2.2571 H 2.75879 V 9.28204 c 0,-0.64718 -0.52469,-1.17187 -1.17188,-1.17187 -0.647183,0 -1.171871,0.52469 -1.171871,1.17187 V 25.6883 c 0,0.6472 0.524688,1.1719 1.171871,1.1719 0.64719,0 1.17188,-0.5247 1.17188,-1.1719 v -3.5156 h 9.60771 c 1.5328,1.4956 3.5833,2.3437 5.7048,2.3437 2.1215,0 4.1719,-0.8481 5.7048,-2.3437 h 6.0921 c 0.6461,0 1.1718,0.5257 1.1718,1.1718 v 4.6875 c 0,0.6472 0.5247,1.1719 1.1719,1.1719 h 7.0313 c 0.6472,0 1.1718,-0.5247 1.1718,-1.1719 v -4.6875 c 0,-5.8155 -4.7313,-10.5468 -10.5468,-10.5468 z"
         fill="#164f91"
         style="fill:#164f91;fill-opacity:1" />
    </g>
  </g>
</svg>
