<?xml version="1.0" encoding="UTF-8" standalone="no"?>
<!-- Uploaded to: SVG Repo, www.svgrepo.com, Generator: SVG Repo Mixer Tools -->

<svg
   width="600.25647"
   height="612.94904"
   viewBox="0 0 18.007694 18.388471"
   fill="none"
   version="1.1"
   id="svg1"
   sodipodi:docname="filter.svg"
   inkscape:version="1.3.2 (091e20ef0f, 2023-11-25, custom)"
   xmlns:inkscape="http://www.inkscape.org/namespaces/inkscape"
   xmlns:sodipodi="http://sodipodi.sourceforge.net/DTD/sodipodi-0.dtd"
   xmlns="http://www.w3.org/2000/svg"
   xmlns:svg="http://www.w3.org/2000/svg">
  <defs
     id="defs1" />
  <sodipodi:namedview
     id="namedview1"
     pagecolor="#ffffff"
     bordercolor="#000000"
     borderopacity="0.25"
     inkscape:showpageshadow="2"
     inkscape:pageopacity="0.0"
     inkscape:pagecheckerboard="0"
     inkscape:deskcolor="#d1d1d1"
     inkscape:zoom="1.065"
     inkscape:cx="300.46948"
     inkscape:cy="366.19718"
     inkscape:window-width="1920"
     inkscape:window-height="1056"
     inkscape:window-x="0"
     inkscape:window-y="0"
     inkscape:window-maximized="1"
     inkscape:current-layer="svg1" />
  <g
     id="Interface / Filter"
     style="stroke:#ffffff;stroke-opacity:1"
     transform="translate(-2.996079,-2.9960435)">
    <path
       id="Vector"
       d="M 20,5.6001 C 20,5.04005 19.9996,4.75981 19.8906,4.5459 19.7948,4.35774 19.6423,4.20487 19.4542,4.10899 19.2403,4 18.9597,4 18.3996,4 H 5.59961 C 5.03956,4 4.75981,4 4.5459,4.10899 4.35774,4.20487 4.20487,4.35774 4.10899,4.5459 4,4.75981 4,5.04005 4,5.6001 v 0.73726 c 0,0.24459 0,0.36697 0.02763,0.48206 0.0245,0.10204 0.065,0.19951 0.11983,0.28898 0.06182,0.10088 0.14845,0.18751 0.32129,0.36035 l 5.06274,5.06275 c 0.17294,0.1729 0.25895,0.2589 0.32079,0.3599 0.05483,0.0894 0.09588,0.1872 0.12038,0.2893 C 10,13.2946 10,13.4155 10,13.6552 v 4.7558 c 0,0.8572 0,1.2861 0.1805,1.5442 0.1577,0.2254 0.4009,0.3758 0.673,0.416 0.3116,0.046 0.6952,-0.1455 1.4619,-0.5288 l 0.8,-0.4 c 0.3211,-0.1605 0.4812,-0.2411 0.5985,-0.3609 0.1037,-0.1059 0.1831,-0.233 0.2314,-0.3731 C 14,18.5499 14,18.37 14,18.011 v -4.3484 c 0,-0.2446 0,-0.3668 0.0276,-0.4819 0.0245,-0.1021 0.065,-0.1999 0.1199,-0.2893 0.0614,-0.1003 0.1472,-0.1861 0.3178,-0.3567 l 0.0035,-0.0032 5.0627,-5.06275 C 19.7044,7.2958 19.7904,7.20932 19.8523,7.1084 19.9071,7.01893 19.9482,6.92146 19.9727,6.81942 20,6.70551 20,6.58444 20,6.3448 Z"
       stroke="#000000"
       stroke-width="2"
       stroke-linecap="round"
       stroke-linejoin="round"
       style="stroke:#ffffff;stroke-opacity:1" />
  </g>
</svg>
