<?xml version="1.0" encoding="UTF-8" standalone="no"?>
<!-- Uploaded to: SVG Repo, www.svgrepo.com, Generator: SVG Repo Mixer Tools -->

<svg
   width="800px"
   height="800px"
   viewBox="0 0 1024 1024"
   class="icon"
   version="1.1"
   id="svg2"
   sodipodi:docname="money.svg"
   inkscape:version="1.3.2 (091e20ef0f, 2023-11-25, custom)"
   xmlns:inkscape="http://www.inkscape.org/namespaces/inkscape"
   xmlns:sodipodi="http://sodipodi.sourceforge.net/DTD/sodipodi-0.dtd"
   xmlns="http://www.w3.org/2000/svg"
   xmlns:svg="http://www.w3.org/2000/svg">
  <defs
     id="defs2" />
  <sodipodi:namedview
     id="namedview2"
     pagecolor="#ffffff"
     bordercolor="#000000"
     borderopacity="0.25"
     inkscape:showpageshadow="2"
     inkscape:pageopacity="0.0"
     inkscape:pagecheckerboard="0"
     inkscape:deskcolor="#d1d1d1"
     inkscape:zoom="1.065"
     inkscape:cx="400"
     inkscape:cy="400"
     inkscape:window-width="1920"
     inkscape:window-height="1056"
     inkscape:window-x="0"
     inkscape:window-y="0"
     inkscape:window-maximized="1"
     inkscape:current-layer="svg2" />
  <path
     d="m 951.87,253.86 c 0,-82.18 -110.05,-144.14 -256,-144.14 -145.95,0 -256,61.96 -256,144.14 0,0.73 0.16,1.42 0.18,2.14 h -0.18 V 365.71 L 509.40437,384.94005 513.01,356.65 c 45.77,25.81 109.81,41.33 182.86,41.33 67.39,0 126.93,-13.33 171.71,-35.64 6.94,7.18 11.15,14.32 11.15,20.58 0,28.25 -72.93,70.98 -182.86,70.98 l -94.7538,0 21.6338,73.14 h 73.12 c 67.4,0 126.96,-13.33 171.74,-35.65 6.95,7.17 11.11,14.31 11.11,20.6 0,28.27 -72.93,71 -182.86,71 l -25.89,0.12 c -15.91,0.14 -31.32,0.29 -46.34,-0.11 l -1.79,73.11 c 8.04,0.2 16.18,0.27 24.48,0.27 7.93,0 16,-0.05 24.2,-0.12 l 25.34,-0.12 c 67.44,0 127.02,-13.35 171.81,-35.69 6.97,7.23 11.04,14.41 11.04,20.62 0,28.27 -72.93,71 -182.86,71 h -73.12 v 73.14 h 73.12 c 67.44,0 127.01,-13.35 171.81,-35.69 6.98,7.22 11.05,14.4 11.05,20.62 0,28.27 -82.01952,90.38706 -191.27315,78.21127 l -83.9369,-15.62442 -43.2676,61.12123 L 695.85,914.28 c 103.35076,15.57065 256,-61.96 256,-144.14 0,-0.68 -0.09,-1.45 -0.11,-2.14 h 0.11 V 256 h -0.18 c 0.03,-0.72 0.2,-1.42 0.2,-2.14 z m -438.86,0 c 0,-28.27 72.93,-71 182.86,-71 109.93,0 182.86,42.73 182.86,71 0,28.25 -72.93,70.98 -182.86,70.98 -109.93,0 -182.86,-42.73 -182.86,-70.98 z"
     fill="#0F1F3C"
     id="path1"
     style="fill:#43aa8b;fill-opacity:1"
     sodipodi:nodetypes="ssscccccscssccscsccccscccssccscssccssccccssssss" />
  <path
     d="M330.15 365.71c-145.95 0-256 61.96-256 144.14 0 0.73 0.16 1.42 0.18 2.14h-0.18v256c0 82.18 110.05 144.14 256 144.14s256-61.96 256-144.14V512h-0.18c0.02-0.72 0.18-1.42 0.18-2.14 0-82.18-110.05-144.15-256-144.15zM147.29 638.93c0-6.32 4.13-13.45 11.08-20.62 44.79 22.33 104.36 35.67 171.78 35.67 67.39 0 126.93-13.33 171.71-35.64 6.94 7.18 11.15 14.32 11.15 20.58 0 28.25-72.93 70.98-182.86 70.98s-182.86-42.72-182.86-70.97z m182.86-200.07c109.93 0 182.86 42.73 182.86 71 0 28.25-72.93 70.98-182.86 70.98s-182.86-42.73-182.86-70.98c0-28.27 72.93-71 182.86-71z m0 400.14c-109.93 0-182.86-42.73-182.86-71 0-6.29 4.17-13.43 11.11-20.6 44.79 22.32 104.34 35.66 171.75 35.66 67.4 0 126.96-13.33 171.74-35.65 6.95 7.17 11.11 14.31 11.11 20.6 0.01 28.26-72.92 70.99-182.85 70.99z"
     fill="#0F1F3C"
     id="path2"
     style="fill:#43aa8b;fill-opacity:1" />
</svg>
