<?xml version="1.0" encoding="UTF-8" standalone="no"?>
<!-- Uploaded to: SVG Repo, www.svgrepo.com, Generator: SVG Repo Mixer Tools -->

<svg
   fill="#000000"
   height="800px"
   width="800px"
   version="1.1"
   id="Capa_1"
   viewBox="0 0 297 297"
   xml:space="preserve"
   sodipodi:docname="toilet.svg"
   inkscape:version="1.3.2 (091e20ef0f, 2023-11-25, custom)"
   xmlns:inkscape="http://www.inkscape.org/namespaces/inkscape"
   xmlns:sodipodi="http://sodipodi.sourceforge.net/DTD/sodipodi-0.dtd"
   xmlns="http://www.w3.org/2000/svg"
   xmlns:svg="http://www.w3.org/2000/svg"><defs
   id="defs2" /><sodipodi:namedview
   id="namedview2"
   pagecolor="#ffffff"
   bordercolor="#000000"
   borderopacity="0.25"
   inkscape:showpageshadow="2"
   inkscape:pageopacity="0.0"
   inkscape:pagecheckerboard="0"
   inkscape:deskcolor="#d1d1d1"
   inkscape:zoom="1.065"
   inkscape:cx="400"
   inkscape:cy="400"
   inkscape:window-width="1920"
   inkscape:window-height="1056"
   inkscape:window-x="0"
   inkscape:window-y="0"
   inkscape:window-maximized="1"
   inkscape:current-layer="Capa_1" />
<g
   id="g2"
   style="fill:#43aa8b;fill-opacity:1">
	<path
   d="M255.861,127.429H41.139c-7.204,0-13.044,5.84-13.044,13.044v143.483c0,7.204,5.84,13.044,13.044,13.044H148.5   c7.204,0,13.044-5.84,13.044-13.044v-41.139h41.557c17.858,0,34.5-6.976,46.859-19.641c12.217-12.52,18.946-29.249,18.946-47.104   v-35.599C268.905,133.269,263.065,127.429,255.861,127.429z M242.818,176.072c0,22.798-17.445,40.657-39.717,40.657H148.5   c-7.204,0-13.044,5.84-13.044,13.044v41.139H54.182V153.517h188.635V176.072z"
   id="path1"
   style="stroke:none;fill:#43aa8b;fill-opacity:1" />
	<path
   d="M41.139,117.395h71.24c7.204,0,13.044-5.84,13.044-13.044V13.044C125.422,5.84,119.582,0,112.378,0h-71.24   c-7.204,0-13.044,5.84-13.044,13.044v91.307C28.095,111.555,33.935,117.395,41.139,117.395z M54.182,26.088h45.152v65.22H54.182   V26.088z"
   id="path2"
   style="stroke:none;fill:#43aa8b;fill-opacity:1" />
</g>
</svg>
