<?xml version="1.0" encoding="UTF-8" standalone="no"?>
<!-- Uploaded to: SVG Repo, www.svgrepo.com, Generator: SVG Repo Mixer Tools -->

<svg
   fill="#000000"
   version="1.1"
   id="Layer_1"
   width="800px"
   height="800px"
   viewBox="0 0 100 100"
   enable-background="new 0 0 100 100"
   xml:space="preserve"
   sodipodi:docname="wheelchair.svg"
   inkscape:version="1.3.2 (091e20ef0f, 2023-11-25, custom)"
   xmlns:inkscape="http://www.inkscape.org/namespaces/inkscape"
   xmlns:sodipodi="http://sodipodi.sourceforge.net/DTD/sodipodi-0.dtd"
   xmlns="http://www.w3.org/2000/svg"
   xmlns:svg="http://www.w3.org/2000/svg"><defs
   id="defs2" /><sodipodi:namedview
   id="namedview2"
   pagecolor="#ffffff"
   bordercolor="#000000"
   borderopacity="0.25"
   inkscape:showpageshadow="2"
   inkscape:pageopacity="0.0"
   inkscape:pagecheckerboard="0"
   inkscape:deskcolor="#d1d1d1"
   inkscape:zoom="0.5325"
   inkscape:cx="215.96244"
   inkscape:cy="221.59624"
   inkscape:window-width="1920"
   inkscape:window-height="1056"
   inkscape:window-x="0"
   inkscape:window-y="0"
   inkscape:window-maximized="1"
   inkscape:current-layer="Layer_1" />
<g
   id="g2"
   style="fill:#43aa8b;fill-opacity:1">
	<path
   d="M51.77,75.42c-2.255,1.564-4.988,2.487-7.941,2.487c-7.706,0-13.954-6.248-13.954-13.954c0-2.952,0.922-5.686,2.487-7.94   l-5.348-5.348c-3.026,3.725-4.852,8.465-4.852,13.639c0,11.967,9.701,21.668,21.667,21.668c5.174,0,9.923-1.816,13.649-4.843   L51.77,75.42z"
   id="path1"
   style="fill:#43aa8b;fill-opacity:1" />
	<path
   id="circle1"
   d="M 76.013999,21.181 A 7.152,7.152 0 0 1 68.862,28.333 7.152,7.152 0 0 1 61.71,21.181 a 7.152,7.152 0 0 1 7.152,-7.152 7.152,7.152 0 0 1 7.151999,7.152 z"
   style="fill:#43aa8b;fill-opacity:1" />
	<path
   d="M73.35,45.582H57.609l8.977-8.978c0.271-0.215,0.515-0.458,0.73-0.729l0.073-0.073l-0.007-0.007   c0.569-0.752,0.919-1.679,0.919-2.694c0-1.623-0.869-3.031-2.159-3.819l0.001-0.001L46.04,17.675l-0.017,0.03   C45.459,17.45,44.839,17.3,44.18,17.3c-1.152,0-2.191,0.447-2.986,1.16l-0.006-0.006l-0.06,0.06   c-0.077,0.072-0.15,0.145-0.222,0.222l-8.865,8.865l0.008,0.008c-0.762,0.804-1.237,1.884-1.237,3.08   c0,2.479,2.009,4.487,4.487,4.487c1.196,0,2.276-0.475,3.08-1.237l0.008,0.008l0.081-0.081c0.003-0.003,0.005-0.005,0.008-0.008   l6.457-6.457l5.514,3.184L37.436,43.597c-2.514,0.775-4.823,2.008-6.854,3.582l5.307,5.307c2.255-1.564,4.988-2.487,7.94-2.487   c7.707,0,13.954,6.248,13.954,13.954c0,2.952-0.922,5.686-2.487,7.94l5.666,5.667c2.839-3.665,4.534-8.261,4.534-13.256   c0-3.507-0.838-6.816-2.317-9.746h5.683v18.371c0,2.479,2.009,4.488,4.488,4.488c2.479,0,4.488-2.01,4.488-4.488V50.069   C77.838,47.591,75.828,45.582,73.35,45.582z"
   id="path2"
   style="fill:#43aa8b;fill-opacity:1" />
</g>
</svg>
