<?xml version="1.0" encoding="UTF-8" standalone="no"?>
<!-- Generator: Adobe Illustrator 19.0.0, SVG Export Plug-In . SVG Version: 6.00 Build 0)  -->

<svg
   version="1.1"
   id="Layer_1"
   x="0px"
   y="0px"
   viewBox="0 0 430.86212 782.75317"
   xml:space="preserve"
   sodipodi:docname="capybara_icon.svg"
   width="430.86212"
   height="782.75317"
   inkscape:version="1.3.2 (091e20ef0f, 2023-11-25, custom)"
   xmlns:inkscape="http://www.inkscape.org/namespaces/inkscape"
   xmlns:sodipodi="http://sodipodi.sourceforge.net/DTD/sodipodi-0.dtd"
   xmlns="http://www.w3.org/2000/svg"
   xmlns:svg="http://www.w3.org/2000/svg"><defs
   id="defs24"><clipPath
     id="clip0_12_275"><rect
       width="40.173"
       height="40"
       fill="#ffffff"
       id="rect1"
       x="0"
       y="0" /></clipPath></defs><sodipodi:namedview
   id="namedview24"
   pagecolor="#ffffff"
   bordercolor="#000000"
   borderopacity="0.25"
   inkscape:showpageshadow="2"
   inkscape:pageopacity="0.0"
   inkscape:pagecheckerboard="0"
   inkscape:deskcolor="#d1d1d1"
   inkscape:zoom="0.41601563"
   inkscape:cx="411.04225"
   inkscape:cy="98.553991"
   inkscape:window-width="1920"
   inkscape:window-height="1056"
   inkscape:window-x="0"
   inkscape:window-y="0"
   inkscape:window-maximized="1"
   inkscape:current-layer="Layer_1" />






<g
   id="g26"
   transform="translate(-37.593316)"><g
     id="007-cartes-et-drapeaux"
     clip-path="url(#clip0_12_275)"
     transform="matrix(13.747848,0,0,13.747848,-23.121429,232.83958)"
     style="fill:#ac8a67;fill-opacity:1"><g
       id="Group"
       style="fill:#ac8a67;fill-opacity:1"><g
         id="Group_2"
         style="fill:#ac8a67;fill-opacity:1"><path
           id="Vector"
           d="M 20.0865,0 C 12.0641,0 5.53735,6.49859 5.53735,14.4864 c 0,9.9131 13.02005,24.4662 13.57435,25.0809 0.5207,0.5774 1.4298,0.5764 1.9495,0 C 21.6156,38.9526 34.6356,24.3995 34.6356,14.4864 34.6355,6.49859 28.1089,0 20.0865,0 Z"
           fill="#000000"
           style="fill:#ac8a67;fill-opacity:1"
           sodipodi:nodetypes="sscccs" /></g></g></g><g
     id="g25"
     transform="translate(-2.9756238)"><g
       id="g2">
	<path
   style="fill:#878791"
   d="m 181.696,65.849 c 0,0 -40.248,-65.849 -49.536,-65.849 -9.288,0 -8.256,98.873 -8.256,98.873 z"
   id="path1" />
	<path
   style="fill:#878791"
   d="m 330.27,65.849 c 0,0 40.248,-65.849 49.536,-65.849 9.288,0 8.256,98.873 8.256,98.873 z"
   id="path2" />
</g><path
       style="fill:#c39b6e"
       d="M 256,512 C 337.872,512 441.928,493.713 465.564,404.672 488.849,316.952 436.331,254.306 421.12,223.04 408.736,197.584 404.608,182.448 404.608,148.736 404.608,33.152 256,33.023 256,33.023 c 0,0 -148.608,0.129 -148.608,115.713 0,33.712 -4.128,48.848 -16.512,74.304 C 75.669,254.305 23.151,316.952 46.436,404.672 70.072,493.714 174.128,512 256,512 Z"
       id="path3" /><path
       style="fill:#ac8a67"
       d="m 256,82.361 v 0 c -31.918,0 -57.792,25.874 -57.792,57.792 v 206.4 c 0,31.918 25.874,57.792 57.792,57.792 v 0 c 31.918,0 57.792,-25.874 57.792,-57.792 v -206.4 c 0,-31.918 -25.874,-57.792 -57.792,-57.792 z"
       id="path4" /><g
       id="g6">
	<path
   style="fill:#464655"
   d="m 313.792,429.03 c 0,42.147 -39.553,28.617 -57.792,28.617 -18.239,0 -57.792,13.53 -57.792,-28.617 0,-42.147 25.874,-28.617 57.792,-28.617 31.918,0 57.792,-13.531 57.792,28.617 z"
   id="path5" />
	<ellipse
   style="fill:#464655"
   cx="115.646"
   cy="164.924"
   rx="16.511999"
   ry="24.768"
   id="ellipse5" />
	<ellipse
   style="fill:#464655"
   cx="396.35001"
   cy="164.924"
   rx="16.511999"
   ry="24.768"
   id="ellipse6" />
</g><path
       style="fill:#c0c0c6"
       d="m 283.628,200.296 -0.012,-0.011 c -7.849,-7.065 -17.732,-10.597 -27.615,-10.597 -9.883,0 -19.765,3.531 -27.615,10.597 l -0.012,0.011 c -34.966,31.47 -54.932,76.303 -54.932,123.346 v 91.214 c 0,13.679 11.089,24.768 24.768,24.768 h 22.819 c 12.14,0 24.115,-2.827 34.973,-8.256 10.859,5.429 22.832,8.256 34.973,8.256 h 22.819 c 13.679,0 24.768,-11.089 24.768,-24.768 V 323.642 C 338.56,276.599 318.594,231.767 283.628,200.296 Z"
       id="path6" /><g
       id="g8">
	<path
   style="fill:#9e9ea6"
   d="m 308.029,241.48 h -9.262 c -6.409,0 -12.73,1.492 -18.461,4.358 l -13.228,6.614 c -6.973,3.487 -15.181,3.487 -22.154,0 l -13.228,-6.614 c -5.732,-2.866 -12.053,-4.358 -18.461,-4.358 h -9.262 c -15.647,0 -29.672,11.716 -30.49,27.342 -0.873,16.665 12.381,30.45 28.855,30.45 h 4.128 c 24.768,0 24.768,33.024 49.536,33.024 24.768,0 24.768,-33.024 49.536,-33.024 h 4.128 c 16.474,0 29.728,-13.785 28.855,-30.45 -0.82,-15.626 -14.846,-27.342 -30.492,-27.342 z"
   id="path7" />
	<path
   style="fill:#9e9ea6"
   d="m 256,431.368 c 2.687,1.344 5.446,2.523 8.256,3.545 V 406.6 c 0,-4.559 -3.697,-8.256 -8.256,-8.256 -4.559,0 -8.256,3.697 -8.256,8.256 v 28.313 c 2.81,-1.022 5.569,-2.202 8.256,-3.545 z"
   id="path8" />
</g><g
       id="g9">
	<circle
   style="fill:#464655"
   cx="202.334"
   cy="270.37399"
   r="12.384"
   id="circle8" />
	<circle
   style="fill:#464655"
   cx="309.66199"
   cy="270.37399"
   r="12.384"
   id="circle9" />
</g></g></g>
<g
   id="g10"
   transform="translate(-37.593316)">
</g>
<g
   id="g11"
   transform="translate(-37.593316)">
</g>
<g
   id="g12"
   transform="translate(-37.593316)">
</g>
<g
   id="g13"
   transform="translate(-37.593316)">
</g>
<g
   id="g14"
   transform="translate(-37.593316)">
</g>
<g
   id="g15"
   transform="translate(-37.593316)">
</g>
<g
   id="g16"
   transform="translate(-37.593316)">
</g>
<g
   id="g17"
   transform="translate(-37.593316)">
</g>
<g
   id="g18"
   transform="translate(-37.593316)">
</g>
<g
   id="g19"
   transform="translate(-37.593316)">
</g>
<g
   id="g20"
   transform="translate(-37.593316)">
</g>
<g
   id="g21"
   transform="translate(-37.593316)">
</g>
<g
   id="g22"
   transform="translate(-37.593316)">
</g>
<g
   id="g23"
   transform="translate(-37.593316)">
</g>
<g
   id="g24"
   transform="translate(-37.593316)">
</g>
</svg>
