<?xml version="1.0" encoding="UTF-8" standalone="no"?>
<svg
   width="34.917923"
   height="48"
   viewBox="0 0 34.917923 48"
   fill="none"
   version="1.1"
   id="svg1"
   sodipodi:docname="food_icon.svg"
   inkscape:version="1.3.2 (091e20ef0f, 2023-11-25, custom)"
   xmlns:inkscape="http://www.inkscape.org/namespaces/inkscape"
   xmlns:sodipodi="http://sodipodi.sourceforge.net/DTD/sodipodi-0.dtd"
   xmlns="http://www.w3.org/2000/svg"
   xmlns:svg="http://www.w3.org/2000/svg">
  <sodipodi:namedview
     id="namedview1"
     pagecolor="#ffffff"
     bordercolor="#000000"
     borderopacity="0.25"
     inkscape:showpageshadow="2"
     inkscape:pageopacity="0.0"
     inkscape:pagecheckerboard="0"
     inkscape:deskcolor="#d1d1d1"
     inkscape:zoom="10.390244"
     inkscape:cx="-4.9084507"
     inkscape:cy="21.654929"
     inkscape:window-width="1920"
     inkscape:window-height="1056"
     inkscape:window-x="0"
     inkscape:window-y="0"
     inkscape:window-maximized="1"
     inkscape:current-layer="g1" />
  <defs
     id="defs1">
    <clipPath
       id="clip0_10_246">
      <rect
         width="40"
         height="40"
         fill="#ffffff"
         transform="translate(0.415039,0.922668)"
         id="rect1"
         x="0"
         y="0" />
    </clipPath>
    <clipPath
       id="clip0_12_275">
      <rect
         width="40.173"
         height="40"
         fill="#ffffff"
         id="rect1-7"
         x="0"
         y="0" />
    </clipPath>
    <clipPath
       id="clip0_10_218">
      <rect
         width="50.038502"
         height="49.845402"
         fill="#ffffff"
         transform="translate(0.475952)"
         id="rect1-75"
         x="0"
         y="0" />
    </clipPath>
  </defs>
  <g
     id="g1"
     transform="matrix(0.62541036,0,0,0.62541036,3.3292053,15.596591)"
     inkscape:export-filename="waterMarker.png"
     inkscape:export-xdpi="96"
     inkscape:export-ydpi="96">
    <g
       id="007-cartes-et-drapeaux"
       clip-path="url(#clip0_12_275)"
       transform="matrix(1.9187414,0,0,1.9187414,-15.947976,-24.938172)">
      <g
         id="Group-3">
        <g
           id="Group_2">
          <path
             id="Vector-5"
             d="M 20.0865,0 C 12.0641,0 5.53735,6.49859 5.53735,14.4864 c 0,9.9131 13.02005,24.4662 13.57435,25.0809 0.5207,0.5774 1.4298,0.5764 1.9495,0 C 21.6156,38.9526 34.6356,24.3995 34.6356,14.4864 34.6355,6.49859 28.1089,0 20.0865,0 Z"
             fill="#000000"
             sodipodi:nodetypes="sscccs"
             style="fill:#164f91;fill-opacity:1" />
        </g>
      </g>
    </g>
    <g
       id="001-restaurant"
       transform="matrix(0.85798952,0,0,0.85798952,0.76875001,-15.946763)"
       style="fill:#ffffff;fill-opacity:1">
      <path
         id="Vector"
         d="m 6.67255,14.5382 c 0,-5.73429 3.73575,-10.38445 8.34345,-10.38445 4.6077,0 8.3435,4.65016 8.3435,10.38445 0.127,2.1093 -0.4068,4.2058 -1.5277,6.0001 -1.1209,1.7942 -2.7736,3.1978 -4.7299,4.0167 v 19.0597 c 0,0.5508 -0.2197,1.0791 -0.6109,1.4686 -0.3912,0.3894 -0.9218,0.6083 -1.475,0.6083 -0.5532,0 -1.0837,-0.2189 -1.4749,-0.6083 -0.3912,-0.3895 -0.6109,-0.9178 -0.6109,-1.4686 V 24.555 C 10.9738,23.7361 9.32114,22.3325 8.20024,20.5383 7.07934,18.744 6.54554,16.6475 6.67255,14.5382 Z M 40.0465,6.23064 V 14.5382 H 37.9606 V 6.23064 c 0,-0.55083 -0.2197,-1.07909 -0.6109,-1.46859 -0.3912,-0.38949 -0.9217,-0.6083 -1.4749,-0.6083 -0.5532,0 -1.0838,0.21881 -1.475,0.6083 -0.3911,0.3895 -0.6109,0.91776 -0.6109,1.46859 V 14.5382 H 31.703 V 6.23064 c 0,-0.55083 -0.2197,-1.07909 -0.6109,-1.46859 -0.3912,-0.38949 -0.9217,-0.6083 -1.4749,-0.6083 -0.5533,0 -1.0838,0.21881 -1.475,0.6083 -0.3912,0.3895 -0.6109,0.91776 -0.6109,1.46859 V 16.6151 c 0,1.6525 0.6593,3.2373 1.8328,4.4057 1.1735,1.1685 2.7652,1.825 4.4248,1.825 v 20.7689 c 0,0.5508 0.2198,1.0791 0.6109,1.4686 0.3912,0.3894 0.9218,0.6083 1.475,0.6083 0.5532,0 1.0837,-0.2189 1.4749,-0.6083 0.3912,-0.3895 0.6109,-0.9178 0.6109,-1.4686 V 22.8458 c 1.6597,0 3.2513,-0.6565 4.4248,-1.825 1.1736,-1.1684 1.8329,-2.7532 1.8329,-4.4057 V 6.23064 c 0,-0.55083 -0.2198,-1.07909 -0.611,-1.46859 -0.3912,-0.38949 -0.9217,-0.6083 -1.4749,-0.6083 -0.5532,0 -1.0838,0.21881 -1.4749,0.6083 -0.3912,0.3895 -0.611,0.91776 -0.611,1.46859 z"
         fill="#164f91"
         style="fill:#ffffff;fill-opacity:1" />
    </g>
  </g>
</svg>
