<?xml version="1.0" encoding="UTF-8" standalone="no"?>
<svg
   width="34.917923"
   height="48"
   viewBox="0 0 34.917923 48"
   fill="none"
   version="1.1"
   id="svg1"
   sodipodi:docname="search_icon.svg"
   inkscape:version="1.4 (e7c3feb100, 2024-10-09)"
   xmlns:inkscape="http://www.inkscape.org/namespaces/inkscape"
   xmlns:sodipodi="http://sodipodi.sourceforge.net/DTD/sodipodi-0.dtd"
   xmlns="http://www.w3.org/2000/svg"
   xmlns:svg="http://www.w3.org/2000/svg">
  <sodipodi:namedview
     id="namedview1"
     pagecolor="#ffffff"
     bordercolor="#000000"
     borderopacity="0.25"
     inkscape:showpageshadow="2"
     inkscape:pageopacity="0.0"
     inkscape:pagecheckerboard="0"
     inkscape:deskcolor="#d1d1d1"
     inkscape:zoom="3.673506"
     inkscape:cx="-17.285939"
     inkscape:cy="10.072122"
     inkscape:window-width="1272"
     inkscape:window-height="761"
     inkscape:window-x="2076"
     inkscape:window-y="122"
     inkscape:window-maximized="0"
     inkscape:current-layer="g1" />
  <defs
     id="defs1">
    <clipPath
       id="clip0_10_246">
      <rect
         width="40"
         height="40"
         fill="#ffffff"
         transform="translate(0.415039,0.922668)"
         id="rect1"
         x="0"
         y="0" />
    </clipPath>
    <clipPath
       id="clip0_12_275">
      <rect
         width="40.173"
         height="40"
         fill="#ffffff"
         id="rect1-7"
         x="0"
         y="0" />
    </clipPath>
    <clipPath
       id="clip0_10_218">
      <rect
         width="50.038502"
         height="49.845402"
         fill="#ffffff"
         transform="translate(0.475952)"
         id="rect1-75"
         x="0"
         y="0" />
    </clipPath>
  </defs>
  <g
     id="g1"
     transform="matrix(0.62541036,0,0,0.62541036,3.3292053,15.596591)"
     inkscape:export-filename="waterMarker.png"
     inkscape:export-xdpi="96"
     inkscape:export-ydpi="96">
    <g
       id="007-cartes-et-drapeaux"
       clip-path="url(#clip0_12_275)"
       transform="matrix(1.9187414,0,0,1.9187414,-15.947976,-24.938172)"
       style="fill:#aa0000">
      <g
         id="Group-3"
         style="fill:#aa0000">
        <g
           id="Group_2"
           style="fill:#aa0000">
          <path
             id="Vector-5"
             d="M 20.0865,0 C 12.0641,0 5.53735,6.49859 5.53735,14.4864 c 0,9.9131 13.02005,24.4662 13.57435,25.0809 0.5207,0.5774 1.4298,0.5764 1.9495,0 C 21.6156,38.9526 34.6356,24.3995 34.6356,14.4864 34.6355,6.49859 28.1089,0 20.0865,0 Z"
             fill="#000000"
             sodipodi:nodetypes="sscccs"
             style="fill:#aa0000;fill-opacity:1" />
        </g>
      </g>
    </g>
    <path
       fill="#000000"
       fill-rule="evenodd"
       d="m 11.727724,2.0322317 a 10.914186,10.914186 0 1 1 21.828371,0 10.914186,10.914186 0 0 1 -21.828371,0 z M 22.64191,-13.247629 a 15.279859,15.279859 0 1 0 9.167914,27.503749 2.1806542,2.1806542 0 0 0 0.203003,0.233562 l 6.548512,6.548512 A 2.182837,2.182837 0 0 0 41.64787,17.951663 L 35.099359,11.403152 A 2.1806542,2.1806542 0 0 0 34.865795,11.200148 15.279859,15.279859 0 0 0 22.64191,-13.247629 Z"
       id="path1"
       style="fill:#ffffff;fill-opacity:1;stroke-width:2.18283" />
  </g>
</svg>
