<?xml version="1.0" encoding="UTF-8" standalone="no"?>
<svg
   width="34.917923"
   height="48"
   viewBox="0 0 34.917923 48"
   fill="none"
   version="1.1"
   id="svg1"
   sodipodi:docname="toilet_icon.svg"
   inkscape:version="1.3.2 (091e20ef0f, 2023-11-25, custom)"
   xmlns:inkscape="http://www.inkscape.org/namespaces/inkscape"
   xmlns:sodipodi="http://sodipodi.sourceforge.net/DTD/sodipodi-0.dtd"
   xmlns="http://www.w3.org/2000/svg"
   xmlns:svg="http://www.w3.org/2000/svg">
  <sodipodi:namedview
     id="namedview1"
     pagecolor="#ffffff"
     bordercolor="#000000"
     borderopacity="0.25"
     inkscape:showpageshadow="2"
     inkscape:pageopacity="0.0"
     inkscape:pagecheckerboard="0"
     inkscape:deskcolor="#d1d1d1"
     inkscape:zoom="10.390244"
     inkscape:cx="-4.9084507"
     inkscape:cy="21.654929"
     inkscape:window-width="1920"
     inkscape:window-height="1056"
     inkscape:window-x="0"
     inkscape:window-y="0"
     inkscape:window-maximized="1"
     inkscape:current-layer="g1" />
  <defs
     id="defs1">
    <clipPath
       id="clip0_10_246">
      <rect
         width="40"
         height="40"
         fill="#ffffff"
         transform="translate(0.415039,0.922668)"
         id="rect1"
         x="0"
         y="0" />
    </clipPath>
    <clipPath
       id="clip0_12_275">
      <rect
         width="40.173"
         height="40"
         fill="#ffffff"
         id="rect1-7"
         x="0"
         y="0" />
    </clipPath>
    <clipPath
       id="clip0_10_218">
      <rect
         width="50.038502"
         height="49.845402"
         fill="#ffffff"
         transform="translate(0.475952)"
         id="rect1-75"
         x="0"
         y="0" />
    </clipPath>
  </defs>
  <g
     id="g1"
     transform="matrix(0.62541036,0,0,0.62541036,3.3292053,15.596591)"
     inkscape:export-filename="waterMarker.png"
     inkscape:export-xdpi="96"
     inkscape:export-ydpi="96">
    <g
       id="007-cartes-et-drapeaux"
       clip-path="url(#clip0_12_275)"
       transform="matrix(1.9187414,0,0,1.9187414,-15.947976,-24.938172)">
      <g
         id="Group-3">
        <g
           id="Group_2">
          <path
             id="Vector-5"
             d="M 20.0865,0 C 12.0641,0 5.53735,6.49859 5.53735,14.4864 c 0,9.9131 13.02005,24.4662 13.57435,25.0809 0.5207,0.5774 1.4298,0.5764 1.9495,0 C 21.6156,38.9526 34.6356,24.3995 34.6356,14.4864 34.6355,6.49859 28.1089,0 20.0865,0 Z"
             fill="#000000"
             sodipodi:nodetypes="sscccs"
             style="fill:#164f91;fill-opacity:1" />
        </g>
      </g>
    </g>
    <g
       id="003-toilette"
       clip-path="url(#clip0_10_218)"
       transform="matrix(0.80481089,0,0,0.80481089,2.0739587,-14.621429)"
       style="fill:#ffffff;fill-opacity:1">
      <g
         id="Group-6"
         style="fill:#ffffff;fill-opacity:1">
        <g
           id="Group_2-2"
           style="fill:#ffffff;fill-opacity:1">
          <g
             id="Group_3"
             style="fill:#ffffff;fill-opacity:1">
            <path
               id="Vector-9"
               d="m 17.5957,16.5465 c -0.3293,-0.8833 -1.2193,-1.3823 -2.1241,-1.3823 -0.4516,0 -0.4933,0.0115 -0.7623,0.0115 H 7.39206 c -0.26908,0 -0.5082,0 -0.76271,0 -1.03329,0 -1.79436,0.4874 -2.12367,1.3708 L 0.598674,28.3822 c -0.372226,0.9986 0.130797,2.1119 1.123356,2.4864 0.99269,0.3746 2.09915,-0.1315 2.47151,-1.13 l 1.03874,-2.786 c 0,0 0.07412,-0.2809 0.07412,0.9456 v 16.4275 c 0,1.4362 1.15728,2.6004 2.58501,2.6004 1.42772,0 2.58499,-1.1642 2.58499,-2.6004 V 33.5936 c 0,0 -0.0125,-0.0949 0.0878,-0.0949 0.2425,0 0.7279,0 0.9706,0 0.0958,0 0.0904,0.0949 0.0904,0.0949 v 10.7321 c 0,1.4362 1.1573,2.6004 2.5851,2.6004 1.4277,0 2.585,-1.1642 2.585,-2.6004 V 27.8982 c 0,-1.2462 0.1085,-0.8536 0.1085,-0.8536 l 1.0045,2.6942 c 0.372,0.9987 1.4788,1.5046 2.4715,1.13 0.9925,-0.3747 1.4957,-1.4877 1.1233,-2.4862 z"
               fill="#164f91"
               style="fill:#ffffff;fill-opacity:1" />
            <path
               id="Vector_2-1"
               d="m 11.1021,13.8628 c 3.0653,0 5.5502,-2.4498 5.5502,-5.47182 0,-3.02202 -2.4849,-5.47185 -5.5502,-5.47185 -3.06522,0 -5.5501,2.44983 -5.5501,5.47185 0,3.02202 2.48488,5.47182 5.5501,5.47182 z"
               fill="#164f91"
               style="fill:#ffffff;fill-opacity:1" />
          </g>
          <g
             id="Group_4"
             style="fill:#ffffff;fill-opacity:1">
            <path
               id="Vector_3"
               d="m 39.4182,13.8891 c 3.0652,0 5.5501,-2.4753 5.5501,-5.52877 0,-3.05343 -2.4849,-5.52873 -5.5501,-5.52873 -3.0653,0 -5.5502,2.4753 -5.5502,5.52873 0,3.05347 2.4849,5.52877 5.5502,5.52877 z"
               fill="#164f91"
               style="fill:#ffffff;fill-opacity:1" />
            <path
               id="Vector_4"
               d="m 50.3315,28.1203 -4.7357,-11.491 c -0.2708,-0.5798 -0.5105,-1.3568 -1.6232,-1.3568 -0.4111,0 -0.8186,0 -1.2893,0 h -5.7954 c -0.4797,0 -0.729,0 -1.3199,0 -1.1099,0 -1.689,0.7204 -2.0065,1.3692 l -4.919,11.4043 c -0.4684,0.9575 -0.0771,2.1142 0.8735,2.584 0.9513,0.4695 2.1023,0.0742 2.5707,-0.8836 l 0.3702,-0.7561 c 0,0 0.115,-0.204 0.0718,0.0216 -0.2677,1.4044 -1.007,5.629 -1.007,5.629 -0.1796,0.8791 0.41,1.5984 1.3106,1.5984 0,0 1.6066,0 2.142,0 0.1533,0 0.1261,0.1151 0.1261,0.1151 v 8.4915 c 0,1.4222 0.8891,2.1679 1.9864,2.1679 1.097,0 1.9866,-0.7457 1.9866,-2.1679 v -8.5254 c 0,0 -0.0044,-0.0842 0.0849,-0.0812 0.1154,0.0037 0.4075,5e-4 0.5385,5e-4 0.0746,0 0.0652,0.0896 0.0652,0.0896 v 8.5165 c 0,1.4222 0.8897,2.1679 1.9871,2.1679 1.0969,0 1.9864,-0.7457 1.9864,-2.1679 v -8.4688 c 0,0 -0.013,-0.1378 0.1515,-0.1378 0.5762,0 2.3042,0 2.3042,0 0.9005,0 1.5046,-0.722 1.3422,-1.6045 0,0 -0.7409,-4.531 -0.9383,-5.7654 -0.0566,-0.3538 0.5335,0.9025 0.5335,0.9025 0.4513,0.9657 1.3227,1.3689 2.282,0.9165 0.9601,-0.4524 1.3722,-1.602 0.9209,-2.5681 z"
               fill="#164f91"
               style="fill:#ffffff;fill-opacity:1" />
          </g>
          <g
             id="Group_5"
             style="fill:#ffffff;fill-opacity:1">
            <g
               id="Group_6"
               style="fill:#ffffff;fill-opacity:1">
              <g
                 id="Group_7"
                 style="fill:#ffffff;fill-opacity:1">
                <path
                   id="Vector_5"
                   d="m 26.4232,45.976 c 0,0.5225 -0.429,0.95 -0.9537,0.95 h -0.4087 c -0.5246,0 -0.9537,-0.4275 -0.9537,-0.95 V 4.35843 c 0,-0.52252 0.4291,-0.95004 0.9537,-0.95004 h 0.4087 c 0.5246,0 0.9537,0.42752 0.9537,0.95004 z"
                   fill="#164f91"
                   style="fill:#ffffff;fill-opacity:1" />
              </g>
            </g>
          </g>
        </g>
      </g>
    </g>
  </g>
</svg>
