<?xml version="1.0" encoding="UTF-8" standalone="no"?>
<!-- Created with Inkscape (http://www.inkscape.org/) -->

<svg
   width="192.69601mm"
   height="253.27031mm"
   viewBox="0 0 192.69601 253.27031"
   version="1.1"
   id="svg1"
   inkscape:version="1.3.2 (091e20ef0f, 2023-11-25, custom)"
   sodipodi:docname="walter_icon_color.svg"
   xmlns:inkscape="http://www.inkscape.org/namespaces/inkscape"
   xmlns:sodipodi="http://sodipodi.sourceforge.net/DTD/sodipodi-0.dtd"
   xmlns="http://www.w3.org/2000/svg"
   xmlns:svg="http://www.w3.org/2000/svg">
  <sodipodi:namedview
     id="namedview1"
     pagecolor="#ffffff"
     bordercolor="#000000"
     borderopacity="0.25"
     inkscape:showpageshadow="2"
     inkscape:pageopacity="0.0"
     inkscape:pagecheckerboard="0"
     inkscape:deskcolor="#d1d1d1"
     inkscape:document-units="mm"
     inkscape:zoom="0.37950337"
     inkscape:cx="245.05711"
     inkscape:cy="313.56771"
     inkscape:window-width="1920"
     inkscape:window-height="1056"
     inkscape:window-x="0"
     inkscape:window-y="0"
     inkscape:window-maximized="1"
     inkscape:current-layer="layer1" />
  <defs
     id="defs1">
    <clipPath
       id="clip0_12_275-3">
      <rect
         width="40.173"
         height="40"
         fill="#ffffff"
         id="rect1-6"
         x="0"
         y="0" />
    </clipPath>
    <clipPath
       id="clip0_10_257">
      <rect
         width="85"
         height="109"
         fill="#ffffff"
         id="rect1-9"
         x="0"
         y="0" />
    </clipPath>
  </defs>
  <g
     inkscape:label="Layer 1"
     inkscape:groupmode="layer"
     id="layer1"
     transform="translate(-10.325855,-26.86864)">
    <g
       id="g14"
       transform="matrix(1.4516991,0,0,1.4516991,-282.37611,-32.987299)">
      <g
         id="007-cartes-et-drapeaux-6"
         clip-path="url(#clip0_12_275-3)"
         transform="matrix(3.2912635,0,0,3.5623357,201.8864,73.203051)"
         style="fill:#ffe8c7;fill-opacity:1">
        <g
           id="Group-2"
           style="fill:#ffe8c7;fill-opacity:1">
          <g
             id="Group_2-6"
             style="fill:#ffe8c7;fill-opacity:1">
            <path
               id="Vector-1"
               d="M 20.0865,0 C 12.0641,0 5.53735,6.49859 5.53735,14.4864 c 0,9.9131 13.02005,24.4662 13.57435,25.0809 0.5207,0.5774 1.4298,0.5764 1.9495,0 C 21.6156,38.9526 34.6356,24.3995 34.6356,14.4864 34.6355,6.49859 28.1089,0 20.0865,0 Z m 0,21.7749 c -4.0363,0 -7.32,-3.2696 -7.32,-7.2885 0,-4.0189 3.2838,-7.28843 7.32,-7.28843 4.0362,0 7.3199,3.26963 7.3199,7.28853 0,4.0189 -3.2837,7.2884 -7.3199,7.2884 z"
               fill="#000000"
               style="fill:#ffe8c7;fill-opacity:1" />
          </g>
        </g>
      </g>
      <g
         id="walter 2"
         clip-path="url(#clip0_10_257)"
         transform="matrix(1.9706321,0,0,1.9706321,196.24123,41.231643)">
        <g
           id="layer1-2">
          <path
             id="Vector 3"
             d="m 4.5,32 5,3 h 53 L 66,32 V 27.5 L 54.5,25 52,15.5 48.5,5.5 44.5,2 36.5,5.5 26.5,2 22,7.5 l -3,12 -3.5,8 h -11 z"
             fill="#43aa8b" />
          <path
             id="Vector 4"
             d="M 56.5,36 H 13 l 1,2.5 C 12.171,47.4474 21.5,60 21.5,60 l 12,5 13.5,-2.5 9.5,-9 2,-14 z"
             fill="#ffe8c7" />
          <rect
             id="Rectangle 2"
             x="18"
             y="18"
             width="36"
             height="7"
             fill="#b61c1c" />
          <path
             id="path1-7"
             d="m 10.8166,46.1062 c 0.1315,-0.3385 0.1479,-0.3284 0.5334,0.327 z m 2.7474,0.5745 c -0.5186,-0.2092 -1.217,-1.1389 -1.4578,-1.9407 -0.486,-1.6178 -0.4537,-3.0766 0.1766,-7.9684 l 0.0801,-0.6212 H 10.3203 C 7.27119,36.1504 5.94882,35.714 4.53746,34.2419 1.57734,31.1545 2.36619,26.3322 6.12118,24.5605 7.1154,24.0913 7.1154,24.0914 11.3161,24.0467 l 4.2006,-0.0447 0.1031,-1.0516 c 0.5424,-5.5318 2.5185,-12.1902 4.8414,-16.31276 2.8327,-5.02745 5.4562,-7.040121 8.5554,-6.5634548 1.1337,0.1743708 2.2031,0.6917228 4.9211,2.3807448 1.2581,0.78177 2.331,1.42463 2.3843,1.4286 0.0533,0.00395 0.9655,-0.55415 2.027,-1.24027 2.7187,-1.757291 3.7332,-2.282816 4.8605,-2.517763 2.0009,-0.417013 3.7229,0.196857 5.5183,1.967203 3.9254,3.87068 7.1554,11.9842 8.0846,20.3078 l 0.1784,1.5989 4.4106,0.046 c 4.4106,0.046 4.4106,0.046 5.291,0.4839 2.358,1.173 3.7528,3.7919 3.3208,6.235 -0.3422,1.935 -1.6346,3.7681 -3.2214,4.569 -1.2475,0.6297 -2.2533,0.8171 -4.3857,0.8171 -1.0726,0 -1.9496,0.0493 -1.949,0.1096 8e-4,0.0603 0.0985,0.8332 0.2173,1.7175 0.2538,1.8891 0.2832,4.5786 0.0648,5.9196 -0.2764,1.6971 -1.0847,2.6635 -2.3851,2.8515 -0.771,0.1115 -1.68,-0.1929 -2.0499,-0.6864 -0.2387,-0.3185 -0.2535,-0.4453 -0.1095,-0.9377 0.0917,-0.3131 0.2052,-1.4573 0.2524,-2.5426 0.0824,-1.8953 -0.0273,-3.3174 -0.4256,-5.5179 L 55.8562,36.1504 H 36.3888 16.9214 l -0.2462,1.3729 c -0.4416,2.4629 -0.5656,4.4064 -0.3879,6.0818 0.0896,0.8441 0.1958,1.6692 0.2362,1.8335 0.2224,0.9058 -1.7456,1.7318 -2.9595,1.2421 z M 63.5748,31.6413 c 0.9477,-0.0859 1.2009,-0.166 1.5151,-0.4789 0.4969,-0.495 0.6358,-1.4375 0.2893,-1.9642 -0.5565,-0.8461 1.2074,-0.8004 -29.2924,-0.7594 -28.04168,0.0377 -28.04167,0.0376 -28.46985,0.515 -0.57363,0.6395 -0.58754,1.4311 -0.03663,2.0832 0.21536,0.255 0.52902,0.519 0.69702,0.5867 0.36752,0.1481 53.67126,0.1651 55.29746,0.0176 z M 52.484,23.8224 c 0.0872,-0.0869 -0.1106,-1.6 -0.4077,-3.1198 L 51.9281,19.9449 36.2542,19.9315 20.5802,19.918 20.3411,21.4473 c -0.1315,0.841 -0.2391,1.7732 -0.2391,2.0714 v 0.5422 L 36.2483,23.9861 C 45.1288,23.945 52.4348,23.8713 52.484,23.8224 Z M 45.5091,15.5898 50.886,15.4935 50.6102,14.5021 C 50.0183,12.3746 48.5661,9.29205 47.2221,7.31049 46.5733,6.35384 45.009,4.6458 44.5643,4.40842 44.2638,4.248 43.5308,4.62243 40.8169,6.32284 c -0.9059,0.5676 -1.6742,1.032 -1.7073,1.032 -0.0332,0 -0.6953,0.39453 -1.4715,0.87674 L 36.2268,9.10832 34.6791,8.14055 C 31.7738,6.3239 28.2756,4.28526 28.0637,4.28526 c -0.3628,0 -1.9942,1.76688 -2.8933,3.13379 -1.0854,1.64992 -2.4159,4.41125 -3.0845,6.40165 -0.2841,0.8456 -0.5165,1.6113 -0.5165,1.7017 0,0.1883 14.8511,0.2302 23.9397,0.0674 z m -19.1706,26.633 c -1.1665,-0.424 -1.982,-1.8068 -1.7602,-2.9845 0.2918,-1.5494 1.4024,-2.464 2.8258,-2.327 1.3538,0.1302 2.1971,0.8225 2.5491,2.0924 0.5554,2.0036 -1.6226,3.9432 -3.6147,3.2191 z m 18.5112,0.0674 c -0.685,-0.212 -1.3794,-0.7627 -1.7178,-1.3625 -0.4626,-0.8199 -0.3627,-2.191 0.2148,-2.9451 0.6725,-0.8782 1.19,-1.1253 2.2345,-1.0669 1.1616,0.0649 1.9377,0.5497 2.3796,1.4863 0.4045,0.8571 0.4,1.613 -0.0146,2.4297 -0.5434,1.0707 -2.0526,1.7816 -3.0965,1.4585 z"
             fill="#000000"
             sodipodi:nodetypes="cccscccsccscscscssscccscccscsscscscccccccscccsccsccccccsscccscscsssscssccsssscssssscccs" />
        </g>
      </g>
      <path
         style="stroke-width:2.01844"
         d="m 269.87917,146.70031 -0.75068,-1.4516 -0.91903,1.74676 c -1.21526,2.3103 -5.40255,6.46509 -7.75749,7.69691 -2.95439,1.54575 -6.86415,2.73683 -10.77504,3.28282 l -3.66678,0.51189 c -6.03956,0.39517 -13.1267,-0.99151 -18.71097,-4.31568 -5.98393,-4.51685 -9.50935,-10.82571 -9.84623,-17.62005 -0.0862,-1.73303 -0.0305,-3.46805 0.11748,-3.85582 0.26548,-0.68354 0.29828,-0.66294 1.07665,0.65989 0.4417,0.75067 8.72069,7.38954 13.37059,7.37421 4.66446,-0.0152 7.26054,-1.09664 13.08382,-5.45008 6.26789,-4.68561 9.42917,-6.00744 14.31381,-5.9857 3.80332,0.0152 5.72006,0.75831 8.10588,3.13489 1.74235,1.73548 1.74235,1.73548 2.21586,1.05842 0.85924,-1.228 2.24454,-2.35568 3.76909,-3.06821 5.48998,-2.56564 11.61353,-1.25425 18.78626,4.02342 4.82491,3.54998 6.6607,4.66461 8.92057,5.41605 4.46139,1.4838 8.69308,1.22747 12.48366,-0.75601 2.0851,-1.09114 4.82392,-3.68745 6.0015,-5.68902 0.43407,-0.73694 0.92705,-1.3406 1.09602,-1.3406 0.20369,0 0.25861,1.26653 0.16174,3.76176 -0.16784,4.35259 -0.90325,6.98605 -2.98568,10.69518 -1.44436,2.57272 -3.9666,9.11257 -20.35963,11.41739 -16.39296,2.30472 -24.70849,-5.39859 -27.73193,-11.24667 z"
         id="path14" />
    </g>
  </g>
</svg>
